%
M48
M72
T01C0.0118
T02C0.0197
T03C0.0236
T04C0.0276
T05C0.0315
T06C0.0320
T07C0.0354
T08C0.0512
T09C0.0591
T10C0.0630
T11C0.0669
%
T01
X3969Y1169
X6469Y2169
X3969Y22193
X6469Y23193
X3965Y42856
X6465Y43856
X22670Y42823
X25170Y43823
X25170Y23193
X22670Y22193
X25170Y2169
X22670Y1169
T02
X23726Y9087
X23495Y10154
X22320Y12419
X22320Y13573
X22939Y17945
X22350Y18069
X23726Y30111
X23495Y31178
X22320Y33443
X22320Y34596
X22939Y38969
X22350Y39093
X23726Y50741
X23495Y51808
X22320Y54073
X22320Y55226
X22939Y59599
X22350Y59723
X5021Y50774
X4790Y51841
X3615Y54106
X3615Y55260
X4234Y59632
X3645Y59756
X3649Y39093
X4238Y38969
X3619Y34596
X3619Y33443
X4794Y31178
X5025Y30111
X3649Y18069
X4238Y17945
X3619Y13573
X3619Y12419
X4794Y10154
X5025Y9087
T03
X6702Y13989
X7550Y14999
X7691Y17036
X8930Y17487
X6042Y17128
X5283Y16223
X4362Y23080
X6702Y35012
X7550Y36023
X7691Y38060
X8930Y38511
X6042Y38152
X5283Y37247
X4358Y43743
X6698Y55676
X7546Y56686
X7687Y58723
X8926Y59174
X6038Y58815
X5279Y57910
X14896Y53350
X14896Y52169
X23063Y43710
X24743Y38152
X23984Y37247
X25403Y35012
X26250Y36023
X26392Y38060
X27631Y38511
X33600Y32687
X33600Y31506
X27631Y17487
X26392Y17036
X26250Y14999
X25403Y13989
X23984Y16223
X24743Y17128
X23063Y23080
X14900Y31506
X14900Y32687
X14900Y11663
X14900Y10482
X23063Y2056
X33600Y10482
X33600Y11663
X33600Y52136
X33600Y53317
X27631Y59141
X26392Y58690
X26250Y56653
X25403Y55642
X23984Y57877
X24743Y58782
X4362Y2056
T04
X6717Y10536
X7982Y12044
X10297Y17290
X12462Y17290
X6717Y31560
X7982Y33068
X10297Y38313
X12462Y38313
X6713Y52223
X7978Y53731
X10293Y58977
X12458Y58977
X25418Y52190
X26683Y53698
X28998Y58943
X31163Y58943
X31163Y38313
X28998Y38313
X26683Y33068
X25418Y31560
X28998Y17290
X31163Y17290
X26683Y12044
X25418Y10536
T05
X27445Y13764
X27445Y34788
X27445Y55418
X8740Y55451
X8744Y34788
X8744Y13764
T06
X3618Y14416
X2618Y14416
X2618Y16570
X3618Y16570
X3618Y35440
X2618Y35440
X2618Y37593
X3618Y37593
X3615Y56103
X2615Y56103
X2615Y58257
X3615Y58257
X21319Y58223
X22319Y58223
X22319Y56070
X21319Y56070
X21319Y37593
X22319Y37593
X22319Y35440
X21319Y35440
X21319Y16570
X22319Y16570
X22319Y14416
X21319Y14416
T07
X18583Y21853
X18583Y24413
X20355Y24413
X18580Y42517
X18580Y45076
X20351Y45076
X37284Y45042
X39056Y45042
X37284Y42483
X37284Y24413
X39056Y24413
X37284Y21853
X37284Y3389
X39056Y3389
X37284Y830
X20355Y3389
X18583Y3389
X18583Y830
T08
X19390Y11339
X16398Y12339
X16398Y17339
X19390Y17339
X19390Y32363
X16398Y33363
X16398Y38363
X19390Y38363
X19386Y53026
X16394Y54026
X16394Y59026
X19386Y59026
X35098Y58993
X38091Y58993
X35098Y53993
X38091Y52993
X38091Y38363
X35098Y38363
X35098Y33363
X38091Y32363
X38091Y17339
X35098Y17339
X35098Y12339
X38091Y11339
T09
X27072Y19166
X27033Y39993
X27072Y60819
X8368Y60853
X8332Y39993
X8372Y19166
T10
X2260Y28249
X16049Y19166
X20961Y28249
X16009Y39993
X21000Y49076
X16045Y60853
X2295Y49109
X2299Y7422
X21000Y7422
X34750Y19166
X34710Y39993
X34750Y60819
T11
X1084Y2349
X20655Y5150
X20655Y12630
X20616Y25977
X20616Y33457
X20651Y46837
X20651Y54317
X39356Y54284
X40494Y59042
X39356Y46804
X39317Y33457
X39317Y25977
X39356Y12630
X39356Y5150
X40494Y2349
X1084Y59042
M30
