G75*
%MOIN*%
%OFA0B0*%
%FSLAX24Y24*%
%IPPOS*%
%LPD*%
%AMOC8*
5,1,8,0,0,1.08239X$1,22.5*
%
%ADD10C,0.0140*%
%ADD11R,0.0315X0.0354*%
%ADD12OC8,0.0660*%
%ADD13C,0.0768*%
%ADD14R,0.0248X0.0327*%
%ADD15R,0.0217X0.0472*%
%ADD16C,0.0476*%
%ADD17C,0.0436*%
%ADD18R,0.0787X0.0709*%
%ADD19R,0.0276X0.0315*%
%ADD20R,0.0197X0.0197*%
%ADD21R,0.0480X0.0358*%
%ADD22R,0.0551X0.1181*%
%ADD23R,0.0315X0.0276*%
%ADD24R,0.0436X0.0436*%
%ADD25C,0.0554*%
%ADD26C,0.0394*%
%ADD27C,0.0200*%
%ADD28C,0.0240*%
%ADD29C,0.0357*%
%ADD30C,0.0160*%
%ADD31C,0.0120*%
%ADD32C,0.0100*%
%ADD33C,0.0500*%
%ADD34C,0.0320*%
%ADD35C,0.0600*%
%ADD36C,0.0396*%
%ADD37C,0.0278*%
%ADD38C,0.0080*%
%ADD39C,0.0475*%
D10*
X004728Y012634D02*
X004860Y012634D01*
X004728Y012634D02*
X004698Y012636D01*
X004668Y012641D01*
X004638Y012649D01*
X004610Y012661D01*
X004584Y012676D01*
X004559Y012693D01*
X004536Y012713D01*
X004516Y012736D01*
X004499Y012761D01*
X004484Y012787D01*
X004472Y012815D01*
X004464Y012845D01*
X004459Y012875D01*
X004457Y012905D01*
X004867Y013016D02*
X004867Y013016D01*
X004867Y013016D01*
X004867Y013016D01*
X004867Y013371D01*
X004865Y013361D01*
X004861Y013352D01*
X004853Y013344D01*
X004844Y013340D01*
X004834Y013338D01*
X004457Y013338D01*
X004867Y013371D02*
X004889Y013373D01*
X004912Y013377D01*
X004933Y013385D01*
X004952Y013396D01*
X004970Y013410D01*
X004986Y013426D01*
X005000Y013444D01*
X005011Y013463D01*
X005019Y013484D01*
X005023Y013507D01*
X005025Y013529D01*
X005025Y014048D01*
X004946Y014239D02*
X004946Y014439D01*
X004946Y014239D02*
X004948Y014209D01*
X004953Y014179D01*
X004961Y014149D01*
X004973Y014121D01*
X004988Y014095D01*
X005005Y014070D01*
X005025Y014047D01*
X004677Y013797D02*
X004659Y013799D01*
X004641Y013803D01*
X004625Y013811D01*
X004610Y013822D01*
X004597Y013835D01*
X004586Y013850D01*
X004578Y013866D01*
X004574Y013884D01*
X004572Y013902D01*
X004572Y014439D01*
X004728Y033658D02*
X004860Y033658D01*
X004728Y033658D02*
X004698Y033660D01*
X004668Y033665D01*
X004638Y033673D01*
X004610Y033685D01*
X004584Y033700D01*
X004559Y033717D01*
X004536Y033737D01*
X004516Y033760D01*
X004499Y033785D01*
X004484Y033811D01*
X004472Y033839D01*
X004464Y033869D01*
X004459Y033899D01*
X004457Y033929D01*
X004867Y034040D02*
X004867Y034040D01*
X004867Y034040D01*
X004867Y034040D01*
X004867Y034394D01*
X004865Y034384D01*
X004861Y034375D01*
X004853Y034367D01*
X004844Y034363D01*
X004834Y034361D01*
X004834Y034362D02*
X004457Y034362D01*
X004867Y034395D02*
X004889Y034397D01*
X004912Y034401D01*
X004933Y034409D01*
X004952Y034420D01*
X004970Y034434D01*
X004986Y034450D01*
X005000Y034468D01*
X005011Y034487D01*
X005019Y034508D01*
X005023Y034531D01*
X005025Y034553D01*
X005025Y035071D01*
X004946Y035263D02*
X004946Y035462D01*
X004946Y035263D02*
X004948Y035233D01*
X004953Y035203D01*
X004961Y035173D01*
X004973Y035145D01*
X004988Y035119D01*
X005005Y035094D01*
X005025Y035071D01*
X004677Y034820D02*
X004659Y034822D01*
X004641Y034826D01*
X004625Y034834D01*
X004610Y034845D01*
X004597Y034858D01*
X004586Y034873D01*
X004578Y034889D01*
X004574Y034907D01*
X004572Y034925D01*
X004572Y035462D01*
X004724Y054321D02*
X004856Y054321D01*
X004724Y054321D02*
X004694Y054323D01*
X004664Y054328D01*
X004634Y054336D01*
X004606Y054348D01*
X004580Y054363D01*
X004555Y054380D01*
X004532Y054400D01*
X004512Y054423D01*
X004495Y054448D01*
X004480Y054474D01*
X004468Y054502D01*
X004460Y054532D01*
X004455Y054562D01*
X004453Y054592D01*
X004863Y054703D02*
X004863Y054703D01*
X004863Y054703D01*
X004863Y054703D01*
X004863Y055058D01*
X004861Y055048D01*
X004857Y055039D01*
X004849Y055031D01*
X004840Y055027D01*
X004830Y055025D01*
X004453Y055025D01*
X004863Y055058D02*
X004885Y055060D01*
X004908Y055064D01*
X004929Y055072D01*
X004948Y055083D01*
X004966Y055097D01*
X004982Y055113D01*
X004996Y055131D01*
X005007Y055150D01*
X005015Y055171D01*
X005019Y055194D01*
X005021Y055216D01*
X005021Y055735D01*
X004942Y055926D02*
X004942Y056126D01*
X004942Y055926D02*
X004944Y055896D01*
X004949Y055866D01*
X004957Y055836D01*
X004969Y055808D01*
X004984Y055782D01*
X005001Y055757D01*
X005021Y055734D01*
X004673Y055484D02*
X004655Y055486D01*
X004637Y055490D01*
X004621Y055498D01*
X004606Y055509D01*
X004593Y055522D01*
X004582Y055537D01*
X004574Y055553D01*
X004570Y055571D01*
X004568Y055589D01*
X004568Y056126D01*
X018693Y050731D02*
X018693Y050451D01*
X018787Y050357D01*
X018973Y050357D01*
X019067Y050451D01*
X019067Y050731D01*
X019160Y050731D02*
X018693Y050731D01*
X018693Y050086D02*
X019067Y050086D01*
X019067Y049806D01*
X018973Y049713D01*
X018693Y049713D01*
X018506Y049376D02*
X019067Y049376D01*
X019067Y049283D02*
X019067Y049470D01*
X018787Y049012D02*
X018600Y049012D01*
X018506Y048919D01*
X018506Y048638D01*
X019067Y048638D01*
X018880Y048638D02*
X018880Y048919D01*
X018787Y049012D01*
X018506Y049283D02*
X018506Y049376D01*
X018787Y048368D02*
X018693Y048274D01*
X018693Y047994D01*
X019067Y047994D01*
X018880Y047723D02*
X018880Y047349D01*
X018787Y047349D02*
X018693Y047443D01*
X018693Y047630D01*
X018787Y047723D01*
X018880Y047723D01*
X019067Y047630D02*
X019067Y047443D01*
X018973Y047349D01*
X018787Y047349D01*
X018787Y047078D02*
X018693Y046985D01*
X018693Y046705D01*
X019254Y046705D01*
X019067Y046705D02*
X019067Y046985D01*
X018973Y047078D01*
X018787Y047078D01*
X018973Y046434D02*
X018600Y046434D01*
X018506Y046341D01*
X018506Y046154D01*
X018600Y046060D01*
X018973Y046060D01*
X019067Y046154D01*
X019067Y046341D01*
X018973Y046434D01*
X019067Y048368D02*
X018787Y048368D01*
X019254Y050544D02*
X019254Y050638D01*
X019160Y050731D01*
X023158Y054992D02*
X023535Y054992D01*
X023535Y054991D02*
X023545Y054993D01*
X023554Y054997D01*
X023562Y055005D01*
X023566Y055014D01*
X023568Y055024D01*
X023568Y054670D01*
X023568Y054670D01*
X023568Y054670D01*
X023568Y054670D01*
X023429Y054287D02*
X023399Y054289D01*
X023369Y054294D01*
X023339Y054302D01*
X023311Y054314D01*
X023285Y054329D01*
X023260Y054346D01*
X023237Y054366D01*
X023217Y054389D01*
X023200Y054414D01*
X023185Y054440D01*
X023173Y054468D01*
X023165Y054498D01*
X023160Y054528D01*
X023158Y054558D01*
X023429Y054287D02*
X023561Y054287D01*
X023568Y055024D02*
X023590Y055026D01*
X023613Y055030D01*
X023634Y055038D01*
X023653Y055049D01*
X023671Y055063D01*
X023687Y055079D01*
X023701Y055097D01*
X023712Y055116D01*
X023720Y055137D01*
X023724Y055160D01*
X023726Y055182D01*
X023726Y055701D01*
X023647Y055893D02*
X023647Y056092D01*
X023646Y055893D02*
X023648Y055863D01*
X023653Y055833D01*
X023661Y055803D01*
X023673Y055775D01*
X023688Y055749D01*
X023705Y055724D01*
X023725Y055701D01*
X023378Y055450D02*
X023360Y055452D01*
X023342Y055456D01*
X023326Y055464D01*
X023311Y055475D01*
X023298Y055488D01*
X023287Y055503D01*
X023279Y055519D01*
X023275Y055537D01*
X023273Y055555D01*
X023273Y056092D01*
X037398Y050697D02*
X037398Y050417D01*
X037491Y050324D01*
X037678Y050324D01*
X037772Y050417D01*
X037772Y050697D01*
X037865Y050697D02*
X037398Y050697D01*
X037398Y050053D02*
X037772Y050053D01*
X037772Y049773D01*
X037678Y049679D01*
X037398Y049679D01*
X037211Y049343D02*
X037772Y049343D01*
X037772Y049250D02*
X037772Y049436D01*
X037491Y048979D02*
X037305Y048979D01*
X037211Y048885D01*
X037211Y048605D01*
X037772Y048605D01*
X037585Y048605D02*
X037585Y048885D01*
X037491Y048979D01*
X037211Y049250D02*
X037211Y049343D01*
X037491Y048334D02*
X037398Y048241D01*
X037398Y047960D01*
X037772Y047960D01*
X037585Y047690D02*
X037585Y047316D01*
X037678Y047316D02*
X037491Y047316D01*
X037398Y047409D01*
X037398Y047596D01*
X037491Y047690D01*
X037585Y047690D01*
X037772Y047596D02*
X037772Y047409D01*
X037678Y047316D01*
X037678Y047045D02*
X037772Y046952D01*
X037772Y046671D01*
X037958Y046671D02*
X037398Y046671D01*
X037398Y046952D01*
X037491Y047045D01*
X037678Y047045D01*
X037678Y046400D02*
X037305Y046400D01*
X037211Y046307D01*
X037211Y046120D01*
X037305Y046027D01*
X037678Y046027D01*
X037772Y046120D01*
X037772Y046307D01*
X037678Y046400D01*
X037772Y048334D02*
X037491Y048334D01*
X037958Y050511D02*
X037958Y050604D01*
X037865Y050697D01*
X037865Y030068D02*
X037398Y030068D01*
X037398Y029787D01*
X037491Y029694D01*
X037678Y029694D01*
X037772Y029787D01*
X037772Y030068D01*
X037865Y030068D02*
X037958Y029974D01*
X037958Y029881D01*
X037772Y029423D02*
X037398Y029423D01*
X037772Y029423D02*
X037772Y029143D01*
X037678Y029049D01*
X037398Y029049D01*
X037211Y028713D02*
X037772Y028713D01*
X037772Y028620D02*
X037772Y028806D01*
X037491Y028349D02*
X037585Y028255D01*
X037585Y027975D01*
X037772Y027975D02*
X037211Y027975D01*
X037211Y028255D01*
X037305Y028349D01*
X037491Y028349D01*
X037211Y028620D02*
X037211Y028713D01*
X037491Y027704D02*
X037772Y027704D01*
X037491Y027704D02*
X037398Y027611D01*
X037398Y027331D01*
X037772Y027331D01*
X037585Y027060D02*
X037585Y026686D01*
X037678Y026686D02*
X037491Y026686D01*
X037398Y026779D01*
X037398Y026966D01*
X037491Y027060D01*
X037585Y027060D01*
X037772Y026966D02*
X037772Y026779D01*
X037678Y026686D01*
X037678Y026415D02*
X037772Y026322D01*
X037772Y026041D01*
X037958Y026041D02*
X037398Y026041D01*
X037398Y026322D01*
X037491Y026415D01*
X037678Y026415D01*
X037678Y025771D02*
X037305Y025771D01*
X037211Y025677D01*
X037211Y025490D01*
X037305Y025397D01*
X037678Y025397D01*
X037772Y025490D01*
X037772Y025677D01*
X037678Y025771D01*
X037772Y009044D02*
X037772Y008764D01*
X037678Y008670D01*
X037491Y008670D01*
X037398Y008764D01*
X037398Y009044D01*
X037865Y009044D01*
X037958Y008951D01*
X037958Y008857D01*
X037772Y008399D02*
X037398Y008399D01*
X037398Y008026D02*
X037678Y008026D01*
X037772Y008119D01*
X037772Y008399D01*
X037772Y007783D02*
X037772Y007596D01*
X037772Y007689D02*
X037211Y007689D01*
X037211Y007596D01*
X037305Y007325D02*
X037491Y007325D01*
X037585Y007232D01*
X037585Y006951D01*
X037772Y006951D02*
X037211Y006951D01*
X037211Y007232D01*
X037305Y007325D01*
X037491Y006681D02*
X037398Y006587D01*
X037398Y006307D01*
X037772Y006307D01*
X037585Y006036D02*
X037585Y005662D01*
X037678Y005662D02*
X037491Y005662D01*
X037398Y005756D01*
X037398Y005943D01*
X037491Y006036D01*
X037585Y006036D01*
X037772Y005943D02*
X037772Y005756D01*
X037678Y005662D01*
X037678Y005391D02*
X037772Y005298D01*
X037772Y005018D01*
X037958Y005018D02*
X037398Y005018D01*
X037398Y005298D01*
X037491Y005391D01*
X037678Y005391D01*
X037678Y004747D02*
X037305Y004747D01*
X037211Y004654D01*
X037211Y004467D01*
X037305Y004373D01*
X037678Y004373D01*
X037772Y004467D01*
X037772Y004654D01*
X037678Y004747D01*
X037772Y006681D02*
X037491Y006681D01*
X023726Y013529D02*
X023726Y014048D01*
X023647Y014239D02*
X023647Y014439D01*
X023646Y014239D02*
X023648Y014209D01*
X023653Y014179D01*
X023661Y014149D01*
X023673Y014121D01*
X023688Y014095D01*
X023705Y014070D01*
X023725Y014047D01*
X023378Y013797D02*
X023360Y013799D01*
X023342Y013803D01*
X023326Y013811D01*
X023311Y013822D01*
X023298Y013835D01*
X023287Y013850D01*
X023279Y013866D01*
X023275Y013884D01*
X023273Y013902D01*
X023273Y014439D01*
X023726Y013529D02*
X023724Y013507D01*
X023720Y013484D01*
X023712Y013463D01*
X023701Y013444D01*
X023687Y013426D01*
X023671Y013410D01*
X023653Y013396D01*
X023634Y013385D01*
X023613Y013377D01*
X023590Y013373D01*
X023568Y013371D01*
X023568Y013016D01*
X023568Y013016D01*
X023568Y013016D01*
X023568Y013016D01*
X023429Y012634D02*
X023399Y012636D01*
X023369Y012641D01*
X023339Y012649D01*
X023311Y012661D01*
X023285Y012676D01*
X023260Y012693D01*
X023237Y012713D01*
X023217Y012736D01*
X023200Y012761D01*
X023185Y012787D01*
X023173Y012815D01*
X023165Y012845D01*
X023160Y012875D01*
X023158Y012905D01*
X023429Y012634D02*
X023561Y012634D01*
X023535Y013338D02*
X023158Y013338D01*
X023535Y013338D02*
X023545Y013340D01*
X023554Y013344D01*
X023562Y013352D01*
X023566Y013361D01*
X023568Y013371D01*
X019164Y009044D02*
X018697Y009044D01*
X018697Y008764D01*
X018791Y008670D01*
X018977Y008670D01*
X019071Y008764D01*
X019071Y009044D01*
X019164Y009044D02*
X019258Y008951D01*
X019258Y008857D01*
X019071Y008399D02*
X018697Y008399D01*
X018697Y008026D02*
X018977Y008026D01*
X019071Y008119D01*
X019071Y008399D01*
X019071Y007783D02*
X019071Y007596D01*
X019071Y007689D02*
X018510Y007689D01*
X018510Y007596D01*
X018604Y007325D02*
X018791Y007325D01*
X018884Y007232D01*
X018884Y006951D01*
X019071Y006951D02*
X018510Y006951D01*
X018510Y007232D01*
X018604Y007325D01*
X018791Y006681D02*
X018697Y006587D01*
X018697Y006307D01*
X019071Y006307D01*
X018884Y006036D02*
X018884Y005662D01*
X018977Y005662D02*
X018791Y005662D01*
X018697Y005756D01*
X018697Y005943D01*
X018791Y006036D01*
X018884Y006036D01*
X019071Y005943D02*
X019071Y005756D01*
X018977Y005662D01*
X018977Y005391D02*
X019071Y005298D01*
X019071Y005018D01*
X019258Y005018D02*
X018697Y005018D01*
X018697Y005298D01*
X018791Y005391D01*
X018977Y005391D01*
X018977Y004747D02*
X018604Y004747D01*
X018510Y004654D01*
X018510Y004467D01*
X018604Y004373D01*
X018977Y004373D01*
X019071Y004467D01*
X019071Y004654D01*
X018977Y004747D01*
X019071Y006681D02*
X018791Y006681D01*
X018604Y025397D02*
X018977Y025397D01*
X019071Y025490D01*
X019071Y025677D01*
X018977Y025771D01*
X018604Y025771D01*
X018510Y025677D01*
X018510Y025490D01*
X018604Y025397D01*
X018697Y026041D02*
X018697Y026322D01*
X018791Y026415D01*
X018977Y026415D01*
X019071Y026322D01*
X019071Y026041D01*
X019258Y026041D02*
X018697Y026041D01*
X018791Y026686D02*
X018697Y026779D01*
X018697Y026966D01*
X018791Y027060D01*
X018884Y027060D01*
X018884Y026686D01*
X018977Y026686D02*
X018791Y026686D01*
X018977Y026686D02*
X019071Y026779D01*
X019071Y026966D01*
X019071Y027331D02*
X018697Y027331D01*
X018697Y027611D01*
X018791Y027704D01*
X019071Y027704D01*
X019071Y027975D02*
X018510Y027975D01*
X018510Y028255D01*
X018604Y028349D01*
X018791Y028349D01*
X018884Y028255D01*
X018884Y027975D01*
X019071Y028620D02*
X019071Y028806D01*
X019071Y028713D02*
X018510Y028713D01*
X018510Y028620D01*
X018697Y029049D02*
X018977Y029049D01*
X019071Y029143D01*
X019071Y029423D01*
X018697Y029423D01*
X018791Y029694D02*
X018697Y029787D01*
X018697Y030068D01*
X019164Y030068D01*
X019258Y029974D01*
X019258Y029881D01*
X019071Y029787D02*
X019071Y030068D01*
X019071Y029787D02*
X018977Y029694D01*
X018791Y029694D01*
X023158Y034362D02*
X023535Y034362D01*
X023535Y034361D02*
X023545Y034363D01*
X023554Y034367D01*
X023562Y034375D01*
X023566Y034384D01*
X023568Y034394D01*
X023568Y034040D01*
X023568Y034040D01*
X023568Y034040D01*
X023568Y034040D01*
X023429Y033658D02*
X023399Y033660D01*
X023369Y033665D01*
X023339Y033673D01*
X023311Y033685D01*
X023285Y033700D01*
X023260Y033717D01*
X023237Y033737D01*
X023217Y033760D01*
X023200Y033785D01*
X023185Y033811D01*
X023173Y033839D01*
X023165Y033869D01*
X023160Y033899D01*
X023158Y033929D01*
X023429Y033658D02*
X023561Y033658D01*
X023568Y034395D02*
X023590Y034397D01*
X023613Y034401D01*
X023634Y034409D01*
X023653Y034420D01*
X023671Y034434D01*
X023687Y034450D01*
X023701Y034468D01*
X023712Y034487D01*
X023720Y034508D01*
X023724Y034531D01*
X023726Y034553D01*
X023726Y035071D01*
X023647Y035263D02*
X023647Y035462D01*
X023646Y035263D02*
X023648Y035233D01*
X023653Y035203D01*
X023661Y035173D01*
X023673Y035145D01*
X023688Y035119D01*
X023705Y035094D01*
X023725Y035071D01*
X023378Y034820D02*
X023360Y034822D01*
X023342Y034826D01*
X023326Y034834D01*
X023311Y034845D01*
X023298Y034858D01*
X023287Y034873D01*
X023279Y034889D01*
X023275Y034907D01*
X023273Y034925D01*
X023273Y035462D01*
D11*
X015465Y039092D03*
X015091Y038265D03*
X014717Y039092D03*
X015087Y058928D03*
X014713Y059755D03*
X015461Y059755D03*
X033418Y059721D03*
X034166Y059721D03*
X033792Y058895D03*
X033418Y039092D03*
X033792Y038265D03*
X034166Y039092D03*
X034166Y018068D03*
X033792Y017241D03*
X033418Y018068D03*
X015465Y018068D03*
X015091Y017241D03*
X014717Y018068D03*
D12*
X021319Y016570D03*
X022319Y016570D03*
X022319Y014416D03*
X021319Y014416D03*
X021319Y035440D03*
X022319Y035440D03*
X022319Y037593D03*
X021319Y037593D03*
X021319Y056070D03*
X022319Y056070D03*
X022319Y058223D03*
X021319Y058223D03*
X003615Y058257D03*
X002615Y058257D03*
X002615Y056103D03*
X003615Y056103D03*
X003618Y037593D03*
X002618Y037593D03*
X002618Y035440D03*
X003618Y035440D03*
X003618Y016570D03*
X002618Y016570D03*
X002618Y014416D03*
X003618Y014416D03*
D13*
X016398Y012339D03*
X019390Y011339D03*
X019390Y017339D03*
X016398Y017339D03*
X019390Y032363D03*
X016398Y033363D03*
X016398Y038363D03*
X019390Y038363D03*
X019386Y053026D03*
X016394Y054026D03*
X016394Y059026D03*
X019386Y059026D03*
X035098Y058993D03*
X038091Y058993D03*
X035098Y053993D03*
X038091Y052993D03*
X038091Y038363D03*
X035098Y038363D03*
X035098Y033363D03*
X038091Y032363D03*
X038091Y017339D03*
X035098Y017339D03*
X035098Y012339D03*
X038091Y011339D03*
D14*
X036626Y018469D03*
X035720Y018469D03*
X035720Y039493D03*
X036626Y039493D03*
X036626Y060123D03*
X035720Y060123D03*
X017921Y060156D03*
X017016Y060156D03*
X017020Y039493D03*
X017925Y039493D03*
X017925Y018469D03*
X017020Y018469D03*
D15*
X002582Y003869D03*
X002582Y004893D03*
X002956Y004893D03*
X003330Y004893D03*
X003330Y003869D03*
X004572Y014439D03*
X004946Y014439D03*
X005320Y014439D03*
X005320Y015462D03*
X004572Y015462D03*
X003330Y024892D03*
X002582Y024892D03*
X002582Y025916D03*
X002956Y025916D03*
X003330Y025916D03*
X004572Y035462D03*
X004946Y035462D03*
X005320Y035462D03*
X005320Y036486D03*
X004572Y036486D03*
X003326Y045556D03*
X002578Y045556D03*
X002578Y046580D03*
X002952Y046580D03*
X003326Y046580D03*
X004568Y056126D03*
X004942Y056126D03*
X005316Y056126D03*
X005316Y057150D03*
X004568Y057150D03*
X021283Y046546D03*
X021657Y046546D03*
X022031Y046546D03*
X022031Y045522D03*
X021283Y045522D03*
X023273Y036486D03*
X024021Y036486D03*
X024021Y035462D03*
X023647Y035462D03*
X023273Y035462D03*
X022031Y025916D03*
X021657Y025916D03*
X021283Y025916D03*
X021283Y024892D03*
X022031Y024892D03*
X023273Y015462D03*
X024021Y015462D03*
X024021Y014439D03*
X023647Y014439D03*
X023273Y014439D03*
X022031Y004893D03*
X021657Y004893D03*
X021283Y004893D03*
X021283Y003869D03*
X022031Y003869D03*
X023273Y056092D03*
X023647Y056092D03*
X024021Y056092D03*
X024021Y057116D03*
X023273Y057116D03*
D16*
X025418Y052190D03*
X026683Y053698D03*
X028998Y058943D03*
X031163Y058943D03*
X031163Y038313D03*
X028998Y038313D03*
X026683Y033068D03*
X025418Y031560D03*
X028998Y017290D03*
X031163Y017290D03*
X026683Y012044D03*
X025418Y010536D03*
X012462Y017290D03*
X010297Y017290D03*
X007982Y012044D03*
X006717Y010536D03*
X006717Y031560D03*
X007982Y033068D03*
X010297Y038313D03*
X012462Y038313D03*
X006713Y052223D03*
X007978Y053731D03*
X010293Y058977D03*
X012458Y058977D03*
D17*
X014896Y053350D03*
X014896Y052169D03*
X007546Y056686D03*
X007687Y058723D03*
X006038Y058815D03*
X005279Y057910D03*
X006042Y038152D03*
X005283Y037247D03*
X007691Y038060D03*
X007550Y036023D03*
X014900Y032687D03*
X014900Y031506D03*
X023984Y037247D03*
X024743Y038152D03*
X026392Y038060D03*
X026250Y036023D03*
X033600Y032687D03*
X033600Y031506D03*
X026392Y017036D03*
X026250Y014999D03*
X024743Y017128D03*
X023984Y016223D03*
X014900Y011663D03*
X014900Y010482D03*
X007550Y014999D03*
X007691Y017036D03*
X006042Y017128D03*
X005283Y016223D03*
X026250Y056653D03*
X026392Y058690D03*
X024743Y058782D03*
X023984Y057877D03*
X033600Y053317D03*
X033600Y052136D03*
X033600Y011663D03*
X033600Y010482D03*
D18*
X033594Y013068D03*
X033594Y014564D03*
X023099Y008414D03*
X023099Y006918D03*
X021596Y011643D03*
X021596Y013139D03*
X014893Y013068D03*
X014893Y014564D03*
X023099Y027941D03*
X023099Y029437D03*
X021596Y032667D03*
X021596Y034163D03*
X014893Y034092D03*
X014893Y035588D03*
X023099Y048571D03*
X023099Y050067D03*
X021596Y053296D03*
X021596Y054793D03*
X014889Y054755D03*
X014889Y056251D03*
X004394Y050101D03*
X004394Y048605D03*
X002891Y053330D03*
X002891Y054826D03*
X002895Y034163D03*
X002895Y032667D03*
X004398Y029437D03*
X004398Y027941D03*
X002895Y013139D03*
X002895Y011643D03*
X004398Y008414D03*
X004398Y006918D03*
X033594Y034092D03*
X033594Y035588D03*
X033594Y054722D03*
X033594Y056218D03*
D19*
X024047Y055450D03*
X023378Y055450D03*
X021942Y047157D03*
X021272Y047157D03*
X023378Y034821D03*
X024047Y034821D03*
X021942Y026527D03*
X021272Y026527D03*
X023378Y013797D03*
X024047Y013797D03*
X021942Y005503D03*
X021272Y005503D03*
X005346Y013797D03*
X004677Y013797D03*
X003241Y005503D03*
X002572Y005503D03*
X002572Y026527D03*
X003241Y026527D03*
X004677Y034821D03*
X005346Y034821D03*
X003237Y047190D03*
X002568Y047190D03*
X004673Y055484D03*
X005342Y055484D03*
D20*
X005296Y055058D03*
X005296Y054703D03*
X005289Y054321D03*
X004856Y054321D03*
X004863Y054703D03*
X004863Y055058D03*
X004453Y055025D03*
X004453Y054592D03*
X004162Y052798D03*
X004167Y052390D03*
X003733Y052390D03*
X003728Y052798D03*
X004867Y034394D03*
X004867Y034040D03*
X004860Y033658D03*
X005293Y033658D03*
X005300Y034040D03*
X005300Y034394D03*
X004457Y034362D03*
X004457Y033929D03*
X004165Y032134D03*
X004170Y031727D03*
X003737Y031727D03*
X003732Y032134D03*
X004867Y013371D03*
X004867Y013016D03*
X004860Y012634D03*
X005293Y012634D03*
X005300Y013016D03*
X005300Y013371D03*
X004457Y013338D03*
X004457Y012905D03*
X004165Y011111D03*
X004170Y010703D03*
X003737Y010703D03*
X003732Y011111D03*
X022433Y011111D03*
X022438Y010703D03*
X022866Y011111D03*
X022871Y010703D03*
X023561Y012634D03*
X023568Y013016D03*
X023568Y013371D03*
X023158Y013338D03*
X023158Y012905D03*
X024001Y013016D03*
X024001Y013371D03*
X023994Y012634D03*
X022871Y031727D03*
X022866Y032134D03*
X022433Y032134D03*
X022438Y031727D03*
X023561Y033658D03*
X023568Y034040D03*
X023568Y034394D03*
X023158Y034362D03*
X023158Y033929D03*
X024001Y034040D03*
X024001Y034394D03*
X023994Y033658D03*
X022871Y052357D03*
X022866Y052764D03*
X022433Y052764D03*
X022438Y052357D03*
X023561Y054287D03*
X023568Y054670D03*
X023568Y055024D03*
X023158Y054992D03*
X023158Y054558D03*
X024001Y054670D03*
X024001Y055024D03*
X023994Y054287D03*
D21*
X023542Y053727D03*
X023542Y052438D03*
X023542Y033097D03*
X023542Y031808D03*
X023542Y012073D03*
X023542Y010784D03*
X004841Y010784D03*
X004841Y012073D03*
X004841Y031808D03*
X004841Y033097D03*
X004837Y052471D03*
X004837Y053760D03*
D22*
X004019Y051435D03*
X002878Y051435D03*
X002882Y030772D03*
X004023Y030772D03*
X004023Y009748D03*
X002882Y009748D03*
X021582Y009748D03*
X022724Y009748D03*
X022724Y030772D03*
X021582Y030772D03*
X021582Y051402D03*
X022724Y051402D03*
D23*
X022530Y047134D03*
X022530Y046465D03*
X022524Y046024D03*
X022524Y045355D03*
X022530Y026504D03*
X022530Y025835D03*
X022524Y025394D03*
X022524Y024725D03*
X022530Y005480D03*
X022530Y004811D03*
X022524Y004371D03*
X022524Y003702D03*
X003823Y003702D03*
X003823Y004371D03*
X003829Y004811D03*
X003829Y005480D03*
X003823Y024725D03*
X003823Y025394D03*
X003829Y025835D03*
X003829Y026504D03*
X003819Y045389D03*
X003819Y046058D03*
X003825Y046498D03*
X003825Y047167D03*
D24*
G36*
X007005Y055702D02*
X006724Y055369D01*
X006391Y055650D01*
X006672Y055983D01*
X007005Y055702D01*
G37*
G36*
X008647Y059304D02*
X009056Y059453D01*
X009205Y059044D01*
X008796Y058895D01*
X008647Y059304D01*
G37*
G36*
X008651Y038641D02*
X009060Y038790D01*
X009209Y038381D01*
X008800Y038232D01*
X008651Y038641D01*
G37*
G36*
X007009Y035038D02*
X006728Y034705D01*
X006395Y034986D01*
X006676Y035319D01*
X007009Y035038D01*
G37*
G36*
X008651Y017617D02*
X009060Y017766D01*
X009209Y017357D01*
X008800Y017208D01*
X008651Y017617D01*
G37*
G36*
X007009Y014015D02*
X006728Y013682D01*
X006395Y013963D01*
X006676Y014296D01*
X007009Y014015D01*
G37*
G36*
X025710Y014015D02*
X025429Y013682D01*
X025096Y013963D01*
X025377Y014296D01*
X025710Y014015D01*
G37*
G36*
X027352Y017617D02*
X027761Y017766D01*
X027910Y017357D01*
X027501Y017208D01*
X027352Y017617D01*
G37*
G36*
X025710Y035038D02*
X025429Y034705D01*
X025096Y034986D01*
X025377Y035319D01*
X025710Y035038D01*
G37*
G36*
X027352Y038641D02*
X027761Y038790D01*
X027910Y038381D01*
X027501Y038232D01*
X027352Y038641D01*
G37*
G36*
X025710Y055668D02*
X025429Y055335D01*
X025096Y055616D01*
X025377Y055949D01*
X025710Y055668D01*
G37*
G36*
X027352Y059271D02*
X027761Y059420D01*
X027910Y059011D01*
X027501Y058862D01*
X027352Y059271D01*
G37*
D25*
X020351Y045076D03*
X018580Y045076D03*
X018580Y042517D03*
X018583Y024413D03*
X020355Y024413D03*
X018583Y021853D03*
X018583Y003389D03*
X020355Y003389D03*
X018583Y000830D03*
X037284Y000830D03*
X037284Y003389D03*
X039056Y003389D03*
X037284Y021853D03*
X037284Y024413D03*
X039056Y024413D03*
X037284Y042483D03*
X037284Y045042D03*
X039056Y045042D03*
D26*
X040494Y056089D03*
X040494Y005302D03*
X001084Y005302D03*
X001084Y056089D03*
D27*
X004837Y053760D02*
X005094Y053760D01*
X005290Y054320D02*
X005289Y054321D01*
X004837Y052471D02*
X004790Y052424D01*
X004790Y051841D01*
X003825Y046498D02*
X003819Y046492D01*
X003819Y046058D01*
X003811Y046050D01*
X003053Y046050D01*
X002952Y046150D01*
X002952Y046580D01*
X005293Y033658D02*
X005294Y033656D01*
X005098Y033097D02*
X004841Y033097D01*
X004841Y031808D02*
X004794Y031761D01*
X004794Y031178D01*
X003829Y025835D02*
X003823Y025829D01*
X003823Y025394D01*
X003815Y025386D01*
X003057Y025386D01*
X002956Y025487D01*
X002956Y025916D01*
X005293Y012634D02*
X005294Y012633D01*
X005098Y012073D02*
X004841Y012073D01*
X004841Y010784D02*
X004794Y010737D01*
X004794Y010154D01*
X003829Y004811D02*
X003823Y004805D01*
X003823Y004371D01*
X003815Y004363D01*
X003057Y004363D01*
X002956Y004463D01*
X002956Y004893D01*
X021657Y004893D02*
X021657Y004463D01*
X021757Y004363D01*
X022516Y004363D01*
X022524Y004371D01*
X022524Y004805D01*
X022530Y004811D01*
X023495Y010154D02*
X023495Y010737D01*
X023542Y010784D01*
X023542Y012073D02*
X023799Y012073D01*
X023995Y012633D02*
X023994Y012634D01*
X022516Y025386D02*
X021757Y025386D01*
X021657Y025487D01*
X021657Y025916D01*
X022524Y025829D02*
X022524Y025394D01*
X022516Y025386D01*
X022524Y025829D02*
X022530Y025835D01*
X023495Y031178D02*
X023495Y031761D01*
X023542Y031808D01*
X023542Y033097D02*
X023799Y033097D01*
X023995Y033656D02*
X023994Y033658D01*
X022516Y046016D02*
X021757Y046016D01*
X021657Y046117D01*
X021657Y046546D01*
X022524Y046459D02*
X022530Y046465D01*
X022524Y046459D02*
X022524Y046024D01*
X022516Y046016D01*
X023495Y051808D02*
X023495Y052391D01*
X023542Y052438D01*
X023542Y053727D02*
X023799Y053727D01*
X023995Y054286D02*
X023994Y054287D01*
D28*
X024001Y054670D01*
X024001Y055024D01*
X024047Y055450D02*
X024021Y056092D01*
X024021Y057116D01*
X024047Y055451D02*
X024054Y055397D01*
X024057Y055343D01*
X024056Y055289D01*
X024052Y055235D01*
X024045Y055181D01*
X024034Y055128D01*
X024019Y055076D01*
X024001Y055025D01*
X023995Y054286D02*
X023995Y053923D01*
X023542Y052438D02*
X023461Y052357D01*
X022871Y052357D01*
X022871Y052759D01*
X022866Y052764D01*
X022871Y052357D02*
X022895Y052333D01*
X022895Y051963D01*
X022724Y051792D01*
X022724Y051402D01*
X022348Y051026D01*
X022348Y048772D01*
X022514Y048606D01*
X023099Y048571D01*
X023099Y047431D01*
X023332Y047197D01*
X023332Y046410D01*
X023278Y046465D01*
X022530Y046465D01*
X022530Y047134D02*
X021964Y047134D01*
X021942Y047157D01*
X021954Y047169D01*
X021954Y048378D01*
X021757Y048575D01*
X021757Y051227D01*
X021582Y051402D01*
X021582Y052140D01*
X021757Y052315D01*
X022397Y052315D01*
X022438Y052357D01*
X022438Y052759D01*
X022433Y052764D01*
X022128Y052764D01*
X021596Y053296D01*
X023726Y050741D02*
X023088Y050102D01*
X021942Y047157D02*
X022031Y047067D01*
X022031Y046546D01*
X021283Y046546D02*
X021283Y047146D01*
X021272Y047157D01*
X022031Y045522D02*
X022356Y045522D01*
X022524Y045355D01*
X022524Y044249D01*
X023063Y043710D01*
X023529Y044198D02*
X036761Y044198D01*
X037284Y044721D01*
X037284Y045042D01*
X031689Y038994D02*
X032698Y037985D01*
X032781Y037985D01*
X033175Y037591D01*
X033175Y036804D01*
X033594Y036384D01*
X033594Y035588D01*
X033594Y034092D02*
X033600Y034086D01*
X033600Y032687D01*
X031689Y038994D02*
X028089Y039002D01*
X027655Y038567D01*
X027654Y038568D02*
X027644Y038555D01*
X027637Y038542D01*
X027633Y038527D01*
X027631Y038511D01*
X026392Y038870D02*
X026392Y038060D01*
X026392Y038870D02*
X026390Y038916D01*
X026385Y038961D01*
X026376Y039005D01*
X026364Y039049D01*
X026348Y039092D01*
X026329Y039133D01*
X026307Y039173D01*
X026281Y039211D01*
X026253Y039247D01*
X026222Y039280D01*
X024021Y036486D02*
X024021Y035462D01*
X024047Y034821D01*
X024001Y034394D02*
X024001Y034040D01*
X023994Y033658D01*
X023995Y033656D02*
X023995Y033293D01*
X024001Y034395D02*
X024019Y034446D01*
X024034Y034498D01*
X024045Y034551D01*
X024052Y034605D01*
X024056Y034659D01*
X024057Y034713D01*
X024054Y034767D01*
X024047Y034821D01*
X022866Y032134D02*
X022871Y032129D01*
X022871Y031727D01*
X023461Y031727D01*
X023542Y031808D01*
X022895Y031703D02*
X022871Y031727D01*
X022895Y031703D02*
X022895Y031333D01*
X022724Y031162D01*
X022724Y030772D01*
X022348Y030396D01*
X022348Y028142D01*
X022514Y027976D01*
X023099Y027941D01*
X023099Y026801D01*
X023332Y026567D01*
X023332Y025780D01*
X023278Y025835D01*
X022530Y025835D01*
X022530Y026504D02*
X021964Y026504D01*
X021942Y026527D01*
X021954Y026539D01*
X021954Y027749D01*
X021757Y027945D01*
X021757Y030597D01*
X021582Y030772D01*
X021582Y031510D01*
X021757Y031686D01*
X022397Y031686D01*
X022438Y031727D01*
X022438Y032129D01*
X022433Y032134D01*
X022128Y032134D01*
X021596Y032667D01*
X023726Y030111D02*
X023088Y029472D01*
X021942Y026527D02*
X022031Y026437D01*
X022031Y025916D01*
X021283Y025916D02*
X021283Y026516D01*
X021272Y026527D01*
X022031Y024892D02*
X022356Y024892D01*
X022524Y024725D01*
X022524Y023619D01*
X023063Y023080D01*
X023529Y023568D02*
X036761Y023568D01*
X037284Y024091D01*
X037284Y024413D01*
X031689Y017970D02*
X032698Y016961D01*
X032781Y016961D01*
X033175Y016567D01*
X033175Y015780D01*
X033594Y015361D01*
X033594Y014564D01*
X033594Y013068D02*
X033600Y013062D01*
X033600Y011663D01*
X031689Y017970D02*
X028089Y017978D01*
X027655Y017544D01*
X027654Y017544D02*
X027644Y017531D01*
X027637Y017518D01*
X027633Y017503D01*
X027631Y017487D01*
X026392Y017847D02*
X026392Y017036D01*
X026392Y017847D02*
X026390Y017893D01*
X026385Y017938D01*
X026376Y017982D01*
X026364Y018026D01*
X026348Y018069D01*
X026329Y018110D01*
X026307Y018150D01*
X026281Y018188D01*
X026253Y018224D01*
X026222Y018257D01*
X024021Y015462D02*
X024021Y014439D01*
X024047Y013797D01*
X024001Y013371D02*
X024001Y013016D01*
X023994Y012634D01*
X023995Y012633D02*
X023995Y012269D01*
X023542Y010784D02*
X023461Y010703D01*
X022871Y010703D01*
X022871Y011106D01*
X022866Y011111D01*
X022871Y010703D02*
X022895Y010680D01*
X022895Y010309D01*
X022724Y010138D01*
X022724Y009748D01*
X022348Y009372D01*
X022348Y007119D01*
X022514Y006953D01*
X023099Y006918D01*
X023099Y005777D01*
X023332Y005544D01*
X023332Y004756D01*
X023278Y004811D01*
X022530Y004811D01*
X022530Y005480D02*
X021964Y005480D01*
X021942Y005503D01*
X021954Y005516D01*
X021954Y006725D01*
X021757Y006922D01*
X021757Y009573D01*
X021582Y009748D01*
X021582Y010487D01*
X021757Y010662D01*
X022397Y010662D01*
X022438Y010703D01*
X022438Y011106D01*
X022433Y011111D01*
X022128Y011111D01*
X021596Y011643D01*
X024001Y013371D02*
X024019Y013422D01*
X024034Y013474D01*
X024045Y013527D01*
X024052Y013581D01*
X024056Y013635D01*
X024057Y013689D01*
X024054Y013743D01*
X024047Y013797D01*
X023726Y009087D02*
X023088Y008449D01*
X021942Y005503D02*
X022031Y005414D01*
X022031Y004893D01*
X021283Y004893D02*
X021283Y005492D01*
X021272Y005503D01*
X022031Y003869D02*
X022356Y003869D01*
X022524Y003702D01*
X022524Y002596D01*
X023063Y002056D01*
X023529Y002544D02*
X036761Y002544D01*
X037284Y003067D01*
X037284Y003389D01*
X023529Y002544D02*
X023332Y002741D01*
X023332Y004756D01*
X018583Y003389D02*
X018583Y003067D01*
X018060Y002544D01*
X004828Y002544D01*
X004631Y002741D01*
X004631Y004756D01*
X004577Y004811D01*
X003829Y004811D01*
X003330Y004893D02*
X003330Y005414D01*
X003241Y005503D01*
X003254Y005516D01*
X003254Y006725D01*
X003057Y006922D01*
X003057Y009573D01*
X002882Y009748D01*
X002882Y010487D01*
X003057Y010662D01*
X003696Y010662D01*
X003737Y010703D01*
X003737Y011106D01*
X003732Y011111D01*
X003427Y011111D01*
X002895Y011643D01*
X004194Y010309D02*
X004023Y010138D01*
X004023Y009748D01*
X003647Y009372D01*
X003647Y007119D01*
X003813Y006953D01*
X004398Y006918D01*
X004398Y005777D01*
X004631Y005544D01*
X004631Y004756D01*
X003829Y005480D02*
X003264Y005480D01*
X003241Y005503D01*
X002582Y005492D02*
X002582Y004893D01*
X002582Y005492D02*
X002572Y005503D01*
X003330Y003869D02*
X003656Y003869D01*
X003823Y003702D01*
X003823Y002596D01*
X004362Y002056D01*
X004387Y008449D02*
X005025Y009087D01*
X004194Y010309D02*
X004194Y010680D01*
X004170Y010703D01*
X004760Y010703D01*
X004841Y010784D01*
X004170Y010703D02*
X004170Y011106D01*
X004165Y011111D01*
X005294Y012269D02*
X005294Y012633D01*
X005293Y012634D02*
X005300Y013016D01*
X005300Y013371D01*
X005346Y013797D02*
X005320Y014439D01*
X005320Y015462D01*
X005346Y013797D02*
X005353Y013743D01*
X005356Y013689D01*
X005355Y013635D01*
X005351Y013581D01*
X005344Y013527D01*
X005333Y013474D01*
X005318Y013422D01*
X005300Y013371D01*
X007691Y017036D02*
X007691Y017847D01*
X007689Y017893D01*
X007684Y017938D01*
X007675Y017982D01*
X007663Y018026D01*
X007647Y018069D01*
X007628Y018110D01*
X007606Y018150D01*
X007580Y018188D01*
X007552Y018224D01*
X007521Y018257D01*
X008954Y017544D02*
X009388Y017978D01*
X012988Y017970D01*
X013998Y016961D01*
X014080Y016961D01*
X014474Y016567D01*
X014474Y015780D01*
X014893Y015361D01*
X014893Y014564D01*
X014893Y013068D02*
X014900Y013062D01*
X014900Y011663D01*
X008930Y017487D02*
X008932Y017503D01*
X008936Y017518D01*
X008943Y017531D01*
X008953Y017544D01*
X004828Y023568D02*
X018060Y023568D01*
X018583Y024091D01*
X018583Y024413D01*
X023332Y023765D02*
X023529Y023568D01*
X023332Y023765D02*
X023332Y025780D01*
X014900Y032687D02*
X014900Y034086D01*
X014893Y034092D01*
X014893Y035588D02*
X014893Y036384D01*
X014474Y036804D01*
X014474Y037591D01*
X014080Y037985D01*
X013998Y037985D01*
X012988Y038994D01*
X009388Y039002D01*
X008954Y038567D01*
X008953Y038568D02*
X008943Y038555D01*
X008936Y038542D01*
X008932Y038527D01*
X008930Y038511D01*
X007691Y038870D02*
X007691Y038060D01*
X007691Y038870D02*
X007689Y038916D01*
X007684Y038961D01*
X007675Y039005D01*
X007663Y039049D01*
X007647Y039092D01*
X007628Y039133D01*
X007606Y039173D01*
X007580Y039211D01*
X007552Y039247D01*
X007521Y039280D01*
X005320Y036486D02*
X005320Y035462D01*
X005346Y034821D01*
X005300Y034394D02*
X005300Y034040D01*
X005293Y033658D01*
X005294Y033656D02*
X005294Y033293D01*
X005300Y034395D02*
X005318Y034446D01*
X005333Y034498D01*
X005344Y034551D01*
X005351Y034605D01*
X005355Y034659D01*
X005356Y034713D01*
X005353Y034767D01*
X005346Y034821D01*
X004165Y032134D02*
X004170Y032129D01*
X004170Y031727D01*
X004760Y031727D01*
X004841Y031808D01*
X004194Y031703D02*
X004170Y031727D01*
X004194Y031703D02*
X004194Y031333D01*
X004023Y031162D01*
X004023Y030772D01*
X003647Y030396D01*
X003647Y028142D01*
X003813Y027976D01*
X004398Y027941D01*
X004398Y026801D01*
X004631Y026567D01*
X004631Y025780D01*
X004577Y025835D01*
X003829Y025835D01*
X003330Y025916D02*
X003330Y026437D01*
X003241Y026527D01*
X003254Y026539D01*
X003254Y027749D01*
X003057Y027945D01*
X003057Y030597D01*
X002882Y030772D01*
X002882Y031510D01*
X003057Y031686D01*
X003696Y031686D01*
X003737Y031727D01*
X003737Y032129D01*
X003732Y032134D01*
X003427Y032134D01*
X002895Y032667D01*
X005025Y030111D02*
X004387Y029472D01*
X003829Y026504D02*
X003264Y026504D01*
X003241Y026527D01*
X002582Y026516D02*
X002582Y025916D01*
X002582Y026516D02*
X002572Y026527D01*
X003330Y024892D02*
X003656Y024892D01*
X003823Y024725D01*
X003823Y023619D01*
X004362Y023080D01*
X004828Y023568D02*
X004631Y023765D01*
X004631Y025780D01*
X004358Y043743D02*
X003819Y044283D01*
X003819Y045389D01*
X003652Y045556D01*
X003326Y045556D01*
X003326Y046580D02*
X003326Y047101D01*
X003237Y047190D01*
X003250Y047203D01*
X003250Y048412D01*
X003053Y048609D01*
X003053Y051260D01*
X002878Y051435D01*
X002878Y052174D01*
X003053Y052349D01*
X003692Y052349D01*
X003733Y052390D01*
X003733Y052793D01*
X003728Y052798D01*
X003423Y052798D01*
X002891Y053330D01*
X004190Y051996D02*
X004019Y051825D01*
X004019Y051435D01*
X003643Y051059D01*
X003643Y048806D01*
X003809Y048640D01*
X004394Y048605D01*
X004394Y047464D01*
X004628Y047231D01*
X004628Y046443D01*
X004573Y046498D01*
X003825Y046498D01*
X003825Y047167D02*
X003260Y047167D01*
X003237Y047190D01*
X002578Y047179D02*
X002578Y046580D01*
X002578Y047179D02*
X002568Y047190D01*
X004628Y046443D02*
X004628Y044428D01*
X004824Y044231D01*
X018056Y044231D01*
X018580Y044754D01*
X018580Y045076D01*
X023332Y044395D02*
X023529Y044198D01*
X023332Y044395D02*
X023332Y046410D01*
X026392Y058690D02*
X026392Y059500D01*
X026390Y059546D01*
X026385Y059591D01*
X026376Y059635D01*
X026364Y059679D01*
X026348Y059722D01*
X026329Y059763D01*
X026307Y059803D01*
X026281Y059841D01*
X026253Y059877D01*
X026222Y059910D01*
X027655Y059197D02*
X028089Y059632D01*
X031689Y059624D01*
X032698Y058615D01*
X032781Y058615D01*
X033175Y058221D01*
X033175Y057434D01*
X033594Y057014D01*
X033594Y056218D01*
X033594Y054722D02*
X033600Y054715D01*
X033600Y053317D01*
X027631Y059141D02*
X027633Y059157D01*
X027637Y059172D01*
X027644Y059185D01*
X027654Y059198D01*
X014889Y057048D02*
X014889Y056251D01*
X014889Y057048D02*
X014470Y057467D01*
X014470Y058254D01*
X014076Y058648D01*
X013994Y058648D01*
X012984Y059657D01*
X009384Y059665D01*
X008950Y059231D01*
X008949Y059231D02*
X008939Y059218D01*
X008932Y059205D01*
X008928Y059190D01*
X008926Y059174D01*
X007687Y059534D02*
X007687Y058723D01*
X007688Y059534D02*
X007686Y059580D01*
X007681Y059625D01*
X007672Y059669D01*
X007660Y059713D01*
X007644Y059756D01*
X007625Y059797D01*
X007603Y059837D01*
X007577Y059875D01*
X007549Y059911D01*
X007518Y059944D01*
X005316Y057150D02*
X005316Y056126D01*
X005342Y055484D01*
X005296Y055058D02*
X005296Y054703D01*
X005289Y054321D01*
X005290Y054320D02*
X005290Y053956D01*
X004837Y052471D02*
X004756Y052390D01*
X004167Y052390D01*
X004167Y052793D01*
X004162Y052798D01*
X004167Y052390D02*
X004190Y052367D01*
X004190Y051996D01*
X005021Y050774D02*
X004383Y050136D01*
X005296Y055058D02*
X005314Y055109D01*
X005329Y055161D01*
X005340Y055214D01*
X005347Y055268D01*
X005351Y055322D01*
X005352Y055376D01*
X005349Y055430D01*
X005342Y055484D01*
X014889Y054755D02*
X014896Y054749D01*
X014896Y053350D01*
D29*
X022320Y054073D03*
X022320Y055226D03*
X023495Y051808D03*
X023726Y050741D03*
X022939Y059599D03*
X022350Y059723D03*
X022350Y039093D03*
X022939Y038969D03*
X022320Y034596D03*
X022320Y033443D03*
X023495Y031178D03*
X023726Y030111D03*
X022350Y018069D03*
X022939Y017945D03*
X022320Y013573D03*
X022320Y012419D03*
X023495Y010154D03*
X023726Y009087D03*
X005025Y009087D03*
X004794Y010154D03*
X003619Y012419D03*
X003619Y013573D03*
X004238Y017945D03*
X003649Y018069D03*
X005025Y030111D03*
X004794Y031178D03*
X003619Y033443D03*
X003619Y034596D03*
X004238Y038969D03*
X003649Y039093D03*
X005021Y050774D03*
X004790Y051841D03*
X003615Y054106D03*
X003615Y055260D03*
X004234Y059632D03*
X003645Y059756D03*
D30*
X004115Y059206D02*
X004415Y059206D01*
X005165Y059956D01*
X007504Y059956D01*
X007517Y059943D02*
X007685Y060111D01*
X009445Y060111D01*
X009705Y060371D01*
X014518Y060371D01*
X014667Y060223D01*
X014667Y059801D01*
X014713Y059755D01*
X015087Y058928D02*
X016295Y058928D01*
X016394Y059026D01*
X021596Y054793D02*
X022115Y054673D01*
X022370Y054673D01*
X022485Y054558D01*
X023158Y054558D01*
X023541Y054287D02*
X023561Y054287D01*
X023994Y054287D02*
X023994Y054223D01*
X023568Y055024D02*
X023548Y055024D01*
X022322Y056073D02*
X022319Y056070D01*
X022322Y056073D02*
X022322Y058220D01*
X022319Y058223D02*
X022319Y058672D01*
X022820Y059173D01*
X023120Y059173D01*
X023870Y059923D01*
X026209Y059923D01*
X026222Y059910D02*
X026390Y060078D01*
X028150Y060078D01*
X028410Y060338D01*
X033223Y060338D01*
X033372Y060189D01*
X033372Y059768D01*
X033418Y059721D01*
X033792Y058895D02*
X035000Y058895D01*
X035098Y058993D01*
X023088Y050102D02*
X023099Y050067D01*
X023870Y039293D02*
X026209Y039293D01*
X026222Y039280D02*
X026390Y039448D01*
X028150Y039448D01*
X028410Y039708D01*
X033223Y039708D01*
X033372Y039560D01*
X033372Y039138D01*
X033418Y039092D01*
X033792Y038265D02*
X035000Y038265D01*
X035098Y038363D01*
X023870Y039293D02*
X023120Y038543D01*
X022820Y038543D01*
X022319Y038042D01*
X022319Y037593D01*
X022322Y037590D02*
X022322Y035443D01*
X022319Y035440D01*
X022370Y034043D02*
X022115Y034043D01*
X021596Y034163D01*
X022370Y034043D02*
X022485Y033929D01*
X023158Y033929D01*
X023541Y033658D02*
X023561Y033658D01*
X023994Y033658D02*
X023994Y033593D01*
X023568Y034394D02*
X023548Y034394D01*
X023088Y029472D02*
X023099Y029437D01*
X016299Y038265D02*
X016398Y038363D01*
X016299Y038265D02*
X015091Y038265D01*
X014717Y039092D02*
X014671Y039138D01*
X014671Y039560D01*
X014522Y039708D01*
X009709Y039708D01*
X009449Y039448D01*
X007689Y039448D01*
X007521Y039280D01*
X007508Y039293D02*
X005169Y039293D01*
X004419Y038543D01*
X004119Y038543D01*
X003618Y038042D01*
X003618Y037593D01*
X003622Y037590D02*
X003622Y035443D01*
X003618Y035440D01*
X003669Y034043D02*
X003414Y034043D01*
X002895Y034163D01*
X003669Y034043D02*
X003784Y033929D01*
X004457Y033929D01*
X004840Y033658D02*
X004860Y033658D01*
X005293Y033658D02*
X005293Y033593D01*
X004867Y034394D02*
X004847Y034394D01*
X004387Y029472D02*
X004398Y029437D01*
X007689Y018424D02*
X009449Y018424D01*
X009709Y018684D01*
X014522Y018684D01*
X014671Y018536D01*
X014671Y018114D01*
X014717Y018068D01*
X015091Y017241D02*
X016299Y017241D01*
X016398Y017339D01*
X021596Y013139D02*
X022115Y013019D01*
X022370Y013019D01*
X022485Y012905D01*
X023158Y012905D01*
X023541Y012634D02*
X023561Y012634D01*
X023994Y012634D02*
X023994Y012570D01*
X023568Y013371D02*
X023548Y013371D01*
X022322Y014419D02*
X022319Y014416D01*
X022322Y014419D02*
X022322Y016567D01*
X022319Y016570D02*
X022319Y017019D01*
X022820Y017519D01*
X023120Y017519D01*
X023870Y018269D01*
X026209Y018269D01*
X026222Y018256D02*
X026390Y018424D01*
X028150Y018424D01*
X028410Y018684D01*
X033223Y018684D01*
X033372Y018536D01*
X033372Y018114D01*
X033418Y018068D01*
X033792Y017241D02*
X035000Y017241D01*
X035098Y017339D01*
X023088Y008449D02*
X023099Y008414D01*
X007689Y018424D02*
X007521Y018256D01*
X007508Y018269D02*
X005169Y018269D01*
X004419Y017519D01*
X004119Y017519D01*
X003618Y017019D01*
X003618Y016570D01*
X003622Y016567D02*
X003622Y014419D01*
X003618Y014416D01*
X003669Y013019D02*
X003414Y013019D01*
X002895Y013139D01*
X003669Y013019D02*
X003784Y012905D01*
X004457Y012905D01*
X004840Y012634D02*
X004860Y012634D01*
X005293Y012634D02*
X005293Y012570D01*
X004867Y013371D02*
X004847Y013371D01*
X004387Y008449D02*
X004398Y008414D01*
X004394Y050101D02*
X004383Y050136D01*
X004837Y054321D02*
X004856Y054321D01*
X005289Y054321D02*
X005289Y054257D01*
X004863Y055058D02*
X004843Y055058D01*
X004453Y054592D02*
X003780Y054592D01*
X003665Y054706D01*
X003411Y054706D01*
X002891Y054826D01*
X003615Y056103D02*
X003618Y056106D01*
X003618Y058254D01*
X003615Y058257D02*
X003615Y058706D01*
X004115Y059206D01*
D31*
X003645Y059756D02*
X003115Y059226D01*
X003115Y055760D01*
X003615Y055260D01*
X003615Y054106D02*
X003214Y053706D01*
X003214Y053406D01*
X003014Y053236D01*
X002914Y053306D01*
X002891Y053330D01*
X003618Y058254D02*
X003615Y058257D01*
X007504Y059956D02*
X007517Y059943D01*
X021596Y053296D02*
X021619Y053273D01*
X021719Y053203D01*
X021919Y053373D01*
X021919Y053672D01*
X022320Y054073D01*
X022320Y055226D02*
X021820Y055726D01*
X021820Y059193D01*
X022350Y059723D01*
X022319Y058223D02*
X022322Y058220D01*
X026209Y059923D02*
X026222Y059910D01*
X026209Y039293D02*
X026222Y039280D01*
X022350Y039093D02*
X021820Y038563D01*
X021820Y035096D01*
X022320Y034596D01*
X022320Y033443D02*
X021919Y033042D01*
X021919Y032743D01*
X021719Y032573D01*
X021619Y032643D01*
X021596Y032667D01*
X022322Y037590D02*
X022319Y037593D01*
X022350Y018069D02*
X021820Y017539D01*
X021820Y014073D01*
X022320Y013573D01*
X022320Y012419D02*
X021919Y012018D01*
X021919Y011719D01*
X021719Y011549D01*
X021619Y011619D01*
X021596Y011643D01*
X022322Y016567D02*
X022319Y016570D01*
X026209Y018269D02*
X026222Y018256D01*
X007521Y018256D02*
X007508Y018269D01*
X003649Y018069D02*
X003119Y017539D01*
X003119Y014073D01*
X003619Y013573D01*
X003619Y012419D02*
X003218Y012018D01*
X003218Y011719D01*
X003018Y011549D01*
X002918Y011619D01*
X002895Y011643D01*
X003622Y016567D02*
X003618Y016570D01*
X003018Y032573D02*
X003218Y032743D01*
X003218Y033042D01*
X003619Y033443D01*
X003018Y032573D02*
X002918Y032643D01*
X002895Y032667D01*
X003619Y034596D02*
X003119Y035096D01*
X003119Y038563D01*
X003649Y039093D01*
X003618Y037593D02*
X003622Y037590D01*
X007508Y039293D02*
X007521Y039280D01*
D32*
X007362Y039723D02*
X007142Y039943D01*
X005219Y039943D01*
X004245Y038969D01*
X004238Y038969D01*
X007362Y039723D02*
X009126Y039723D01*
X009356Y039953D01*
X014868Y039953D01*
X015261Y039560D01*
X015261Y039295D01*
X015465Y039092D01*
X017033Y039363D02*
X017033Y039480D01*
X017020Y039493D01*
X022939Y038969D02*
X022946Y038969D01*
X023920Y039943D01*
X025843Y039943D01*
X026063Y039723D01*
X027826Y039723D01*
X028057Y039953D01*
X033569Y039953D01*
X033962Y039560D01*
X033962Y039295D01*
X034166Y039092D01*
X035734Y039363D02*
X035734Y039480D01*
X035720Y039493D01*
X034166Y059721D02*
X033962Y059925D01*
X033962Y060189D01*
X033569Y060583D01*
X028057Y060583D01*
X027826Y060353D01*
X026063Y060353D01*
X025843Y060573D01*
X023920Y060573D01*
X022946Y059599D01*
X022939Y059599D01*
X017029Y060026D02*
X017029Y060143D01*
X017016Y060156D01*
X015461Y059755D02*
X015257Y059959D01*
X015257Y060223D01*
X014864Y060617D01*
X009352Y060617D01*
X009122Y060386D01*
X007358Y060386D01*
X007138Y060606D01*
X005215Y060606D01*
X004241Y059632D01*
X004234Y059632D01*
X005219Y018919D02*
X007142Y018919D01*
X007362Y018699D01*
X009126Y018699D01*
X009356Y018930D01*
X014868Y018930D01*
X015261Y018536D01*
X015261Y018272D01*
X015465Y018068D01*
X017033Y018339D02*
X017033Y018456D01*
X017020Y018469D01*
X022939Y017945D02*
X022946Y017945D01*
X023920Y018919D01*
X025843Y018919D01*
X026063Y018699D01*
X027826Y018699D01*
X028057Y018930D01*
X033569Y018930D01*
X033962Y018536D01*
X033962Y018272D01*
X034166Y018068D01*
X035734Y018339D02*
X035734Y018456D01*
X035720Y018469D01*
X035734Y059993D02*
X035734Y060110D01*
X035720Y060123D01*
X005219Y018919D02*
X004245Y017945D01*
X004238Y017945D01*
D33*
X008604Y016114D02*
X008604Y015569D01*
X008605Y015554D01*
X008610Y015540D01*
X008617Y015527D01*
X008626Y015516D01*
X008637Y015507D01*
X008650Y015500D01*
X008664Y015495D01*
X008679Y015494D01*
X008679Y015479D01*
X008681Y015465D01*
X008685Y015451D01*
X008693Y015438D01*
X008703Y015428D01*
X008716Y015420D01*
X008730Y015416D01*
X008744Y015414D01*
X008744Y013764D01*
X008604Y016114D02*
X008606Y016157D01*
X008611Y016200D01*
X008620Y016242D01*
X008632Y016283D01*
X008648Y016323D01*
X008667Y016361D01*
X008689Y016398D01*
X008714Y016433D01*
X008741Y016466D01*
X008772Y016497D01*
X008805Y016524D01*
X008840Y016549D01*
X008877Y016571D01*
X008915Y016590D01*
X008955Y016606D01*
X008996Y016618D01*
X009038Y016627D01*
X009081Y016632D01*
X009124Y016634D01*
X009641Y016634D01*
X009641Y016635D02*
X009690Y016637D01*
X009739Y016642D01*
X009787Y016651D01*
X009834Y016664D01*
X009880Y016680D01*
X009925Y016700D01*
X009969Y016723D01*
X010010Y016749D01*
X010049Y016778D01*
X010087Y016810D01*
X010121Y016844D01*
X010153Y016882D01*
X010182Y016921D01*
X010208Y016963D01*
X010231Y017006D01*
X010251Y017051D01*
X010267Y017097D01*
X010280Y017144D01*
X010289Y017192D01*
X010294Y017241D01*
X010296Y017290D01*
X016398Y017339D02*
X016398Y017847D01*
X017020Y018469D01*
X017925Y018469D02*
X017925Y017841D01*
X018411Y017355D01*
X019374Y017355D01*
X019390Y017339D01*
X027305Y016114D02*
X027305Y015569D01*
X027306Y015554D01*
X027311Y015540D01*
X027318Y015527D01*
X027327Y015516D01*
X027338Y015507D01*
X027351Y015500D01*
X027365Y015495D01*
X027380Y015494D01*
X027380Y015479D01*
X027382Y015465D01*
X027386Y015451D01*
X027394Y015438D01*
X027404Y015428D01*
X027417Y015420D01*
X027431Y015416D01*
X027445Y015414D01*
X027445Y013764D01*
X027305Y016114D02*
X027307Y016157D01*
X027312Y016200D01*
X027321Y016242D01*
X027333Y016283D01*
X027349Y016323D01*
X027368Y016361D01*
X027390Y016398D01*
X027415Y016433D01*
X027442Y016466D01*
X027473Y016497D01*
X027506Y016524D01*
X027541Y016549D01*
X027578Y016571D01*
X027616Y016590D01*
X027656Y016606D01*
X027697Y016618D01*
X027739Y016627D01*
X027782Y016632D01*
X027825Y016634D01*
X028342Y016634D01*
X028342Y016635D02*
X028391Y016637D01*
X028440Y016642D01*
X028488Y016651D01*
X028535Y016664D01*
X028581Y016680D01*
X028626Y016700D01*
X028670Y016723D01*
X028711Y016749D01*
X028750Y016778D01*
X028788Y016810D01*
X028822Y016844D01*
X028854Y016882D01*
X028883Y016921D01*
X028909Y016963D01*
X028932Y017006D01*
X028952Y017051D01*
X028968Y017097D01*
X028981Y017144D01*
X028990Y017192D01*
X028995Y017241D01*
X028997Y017290D01*
X035098Y017339D02*
X035098Y017847D01*
X035720Y018469D01*
X036626Y018469D02*
X036626Y017841D01*
X037112Y017355D01*
X038075Y017355D01*
X038091Y017339D01*
X027445Y034788D02*
X027445Y036438D01*
X027431Y036440D01*
X027417Y036444D01*
X027404Y036452D01*
X027394Y036462D01*
X027386Y036475D01*
X027382Y036489D01*
X027380Y036503D01*
X027380Y036518D01*
X027365Y036519D01*
X027351Y036524D01*
X027338Y036531D01*
X027327Y036540D01*
X027318Y036551D01*
X027311Y036564D01*
X027306Y036578D01*
X027305Y036593D01*
X027305Y037138D01*
X027307Y037181D01*
X027312Y037224D01*
X027321Y037266D01*
X027333Y037307D01*
X027349Y037347D01*
X027368Y037385D01*
X027390Y037422D01*
X027415Y037457D01*
X027442Y037490D01*
X027473Y037521D01*
X027506Y037548D01*
X027541Y037573D01*
X027578Y037595D01*
X027616Y037614D01*
X027656Y037630D01*
X027697Y037642D01*
X027739Y037651D01*
X027782Y037656D01*
X027825Y037658D01*
X028342Y037658D01*
X028391Y037660D01*
X028440Y037665D01*
X028488Y037674D01*
X028535Y037687D01*
X028581Y037703D01*
X028626Y037723D01*
X028670Y037746D01*
X028711Y037772D01*
X028750Y037801D01*
X028788Y037833D01*
X028822Y037867D01*
X028854Y037905D01*
X028883Y037944D01*
X028909Y037986D01*
X028932Y038029D01*
X028952Y038074D01*
X028968Y038120D01*
X028981Y038167D01*
X028990Y038215D01*
X028995Y038264D01*
X028997Y038313D01*
X035098Y038363D02*
X035098Y038871D01*
X035720Y039493D01*
X036626Y039493D02*
X036626Y038864D01*
X037112Y038378D01*
X038075Y038378D01*
X038091Y038363D01*
X027445Y055418D02*
X027445Y057068D01*
X027431Y057070D01*
X027417Y057074D01*
X027404Y057082D01*
X027394Y057092D01*
X027386Y057105D01*
X027382Y057119D01*
X027380Y057133D01*
X027380Y057148D01*
X027365Y057149D01*
X027351Y057154D01*
X027338Y057161D01*
X027327Y057170D01*
X027318Y057181D01*
X027311Y057194D01*
X027306Y057208D01*
X027305Y057223D01*
X027305Y057768D01*
X027307Y057811D01*
X027312Y057854D01*
X027321Y057896D01*
X027333Y057937D01*
X027349Y057977D01*
X027368Y058015D01*
X027390Y058052D01*
X027415Y058087D01*
X027442Y058120D01*
X027473Y058151D01*
X027506Y058178D01*
X027541Y058203D01*
X027578Y058225D01*
X027616Y058244D01*
X027656Y058260D01*
X027697Y058272D01*
X027739Y058281D01*
X027782Y058286D01*
X027825Y058288D01*
X028342Y058288D01*
X028391Y058290D01*
X028440Y058295D01*
X028488Y058304D01*
X028535Y058317D01*
X028581Y058333D01*
X028626Y058353D01*
X028670Y058376D01*
X028711Y058402D01*
X028750Y058431D01*
X028788Y058463D01*
X028822Y058497D01*
X028854Y058535D01*
X028883Y058574D01*
X028909Y058616D01*
X028932Y058659D01*
X028952Y058704D01*
X028968Y058750D01*
X028981Y058797D01*
X028990Y058845D01*
X028995Y058894D01*
X028997Y058943D01*
X035098Y058993D02*
X035098Y059501D01*
X035720Y060123D01*
X036626Y060123D02*
X036626Y059494D01*
X037112Y059008D01*
X038075Y059008D01*
X038091Y058993D01*
X019386Y059026D02*
X019370Y059042D01*
X018407Y059042D01*
X017921Y059528D01*
X017921Y060156D01*
X017016Y060156D02*
X016394Y059534D01*
X016394Y059026D01*
X010292Y058977D02*
X010290Y058928D01*
X010285Y058879D01*
X010276Y058831D01*
X010263Y058784D01*
X010247Y058738D01*
X010227Y058693D01*
X010204Y058650D01*
X010178Y058608D01*
X010149Y058569D01*
X010117Y058531D01*
X010083Y058497D01*
X010045Y058465D01*
X010006Y058436D01*
X009965Y058410D01*
X009921Y058387D01*
X009876Y058367D01*
X009830Y058351D01*
X009783Y058338D01*
X009735Y058329D01*
X009686Y058324D01*
X009637Y058322D01*
X009637Y058321D02*
X009120Y058321D01*
X009077Y058319D01*
X009034Y058314D01*
X008992Y058305D01*
X008951Y058293D01*
X008911Y058277D01*
X008873Y058258D01*
X008836Y058236D01*
X008801Y058211D01*
X008768Y058184D01*
X008737Y058153D01*
X008710Y058120D01*
X008685Y058085D01*
X008663Y058048D01*
X008644Y058010D01*
X008628Y057970D01*
X008616Y057929D01*
X008607Y057887D01*
X008602Y057844D01*
X008600Y057801D01*
X008600Y057256D01*
X008601Y057241D01*
X008606Y057227D01*
X008613Y057214D01*
X008622Y057203D01*
X008633Y057194D01*
X008646Y057187D01*
X008660Y057182D01*
X008675Y057181D01*
X008675Y057166D01*
X008677Y057152D01*
X008681Y057138D01*
X008689Y057125D01*
X008699Y057115D01*
X008712Y057107D01*
X008726Y057103D01*
X008740Y057101D01*
X008740Y055451D01*
X017020Y039493D02*
X016398Y038871D01*
X016398Y038363D01*
X017925Y038864D02*
X018411Y038378D01*
X019374Y038378D01*
X019390Y038363D01*
X017925Y038864D02*
X017925Y039493D01*
X010296Y038313D02*
X010294Y038264D01*
X010289Y038215D01*
X010280Y038167D01*
X010267Y038120D01*
X010251Y038074D01*
X010231Y038029D01*
X010208Y037986D01*
X010182Y037944D01*
X010153Y037905D01*
X010121Y037867D01*
X010087Y037833D01*
X010049Y037801D01*
X010010Y037772D01*
X009969Y037746D01*
X009925Y037723D01*
X009880Y037703D01*
X009834Y037687D01*
X009787Y037674D01*
X009739Y037665D01*
X009690Y037660D01*
X009641Y037658D01*
X009124Y037658D01*
X009081Y037656D01*
X009038Y037651D01*
X008996Y037642D01*
X008955Y037630D01*
X008915Y037614D01*
X008877Y037595D01*
X008840Y037573D01*
X008805Y037548D01*
X008772Y037521D01*
X008741Y037490D01*
X008714Y037457D01*
X008689Y037422D01*
X008667Y037385D01*
X008648Y037347D01*
X008632Y037307D01*
X008620Y037266D01*
X008611Y037224D01*
X008606Y037181D01*
X008604Y037138D01*
X008604Y036593D01*
X008605Y036578D01*
X008610Y036564D01*
X008617Y036551D01*
X008626Y036540D01*
X008637Y036531D01*
X008650Y036524D01*
X008664Y036519D01*
X008679Y036518D01*
X008679Y036503D01*
X008681Y036489D01*
X008685Y036475D01*
X008693Y036462D01*
X008703Y036452D01*
X008716Y036444D01*
X008730Y036440D01*
X008744Y036438D01*
X008744Y034788D01*
D34*
X007757Y033293D02*
X007982Y033068D01*
X007757Y033293D02*
X005294Y033293D01*
X005098Y033097D01*
X006111Y032568D02*
X003018Y032573D01*
X006111Y032568D02*
X006717Y031962D01*
X006717Y031560D01*
X007757Y012269D02*
X005294Y012269D01*
X005098Y012073D01*
X006111Y011544D02*
X003018Y011549D01*
X006111Y011544D02*
X006717Y010939D01*
X006717Y010536D01*
X007982Y012044D02*
X007757Y012269D01*
X021719Y011549D02*
X024812Y011544D01*
X025418Y010939D01*
X025418Y010536D01*
X026683Y012044D02*
X026458Y012269D01*
X023995Y012269D01*
X023799Y012073D01*
X025418Y031560D02*
X025418Y031962D01*
X024812Y032568D01*
X021719Y032573D01*
X023799Y033097D02*
X023995Y033293D01*
X026458Y033293D01*
X026683Y033068D01*
X025418Y052190D02*
X025418Y052592D01*
X024812Y053198D01*
X021719Y053203D01*
X023799Y053727D02*
X023995Y053923D01*
X026458Y053923D01*
X026683Y053698D01*
X007978Y053731D02*
X007753Y053956D01*
X005290Y053956D01*
X005094Y053760D01*
X006107Y053231D02*
X003014Y053236D01*
X006107Y053231D02*
X006713Y052626D01*
X006713Y052223D01*
D35*
X004568Y057150D02*
X004565Y057152D01*
X004565Y057730D01*
X004745Y057910D01*
X005279Y057910D01*
X005283Y037247D02*
X004749Y037247D01*
X004569Y037067D01*
X004569Y036489D01*
X004572Y036486D01*
X004749Y016223D02*
X004569Y016043D01*
X004569Y015465D01*
X004572Y015462D01*
X004749Y016223D02*
X005283Y016223D01*
X023270Y016043D02*
X023270Y015465D01*
X023273Y015462D01*
X023270Y016043D02*
X023450Y016223D01*
X023984Y016223D01*
X023273Y036486D02*
X023270Y036489D01*
X023270Y037067D01*
X023450Y037247D01*
X023984Y037247D01*
X023273Y057116D02*
X023270Y057119D01*
X023270Y057697D01*
X023450Y057877D01*
X023984Y057877D01*
D36*
X023063Y043710D03*
X023063Y023080D03*
X023063Y002056D03*
X004362Y002056D03*
X004362Y023080D03*
X004358Y043743D03*
D37*
X003965Y042856D03*
X006465Y043856D03*
X006469Y023193D03*
X003969Y022193D03*
X006469Y002169D03*
X003969Y001169D03*
X022670Y001169D03*
X025170Y002169D03*
X022670Y022193D03*
X025170Y023193D03*
X022670Y042823D03*
X025170Y043823D03*
D38*
X024170Y042823D01*
X022670Y042823D01*
X025170Y023193D02*
X024170Y022193D01*
X022670Y022193D01*
X025170Y002169D02*
X024170Y001169D01*
X022670Y001169D01*
X006469Y002169D02*
X005469Y001169D01*
X003969Y001169D01*
X003969Y022193D02*
X005469Y022193D01*
X006469Y023193D01*
X005465Y042856D02*
X003965Y042856D01*
X005465Y042856D02*
X006465Y043856D01*
D39*
X008744Y034788D03*
X008740Y055451D03*
X027445Y055418D03*
X027445Y034788D03*
X027445Y013764D03*
X008744Y013764D03*
M02*
