G75*
%MOIN*%
%OFA0B0*%
%FSLAX24Y24*%
%IPPOS*%
%LPD*%
%AMOC8*
5,1,8,0,0,1.08239X$1,22.5*
%
%ADD10C,0.0671*%
%ADD11C,0.0710*%
%ADD12C,0.0749*%
%ADD13R,0.0950X0.5000*%
%ADD14R,0.0395X0.0434*%
%ADD15OC8,0.0740*%
%ADD16C,0.0848*%
%ADD17R,0.0328X0.0407*%
%ADD18R,0.0297X0.0552*%
%ADD19C,0.0556*%
%ADD20C,0.0516*%
%ADD21R,0.0867X0.0789*%
%ADD22R,0.0356X0.0395*%
%ADD23R,0.0277X0.0277*%
%ADD24R,0.0560X0.0438*%
%ADD25R,0.0631X0.1261*%
%ADD26R,0.0395X0.0356*%
%ADD27R,0.0516X0.0516*%
%ADD28C,0.0634*%
%ADD29C,0.1181*%
%ADD30C,0.0437*%
%ADD31C,0.0476*%
%ADD32C,0.0358*%
%ADD33C,0.0555*%
D10*
X008372Y019166D03*
X008332Y039993D03*
X008368Y060853D03*
X027072Y060819D03*
X027033Y039993D03*
X027072Y019166D03*
D11*
X020961Y028249D03*
X016049Y019166D03*
X021000Y007422D03*
X034750Y019166D03*
X034710Y039993D03*
X021000Y049076D03*
X016009Y039993D03*
X002295Y049109D03*
X016045Y060853D03*
X034750Y060819D03*
X002260Y028249D03*
X002299Y007422D03*
D12*
X001084Y002349D03*
X020655Y005150D03*
X020655Y012630D03*
X020616Y025977D03*
X020616Y033457D03*
X020651Y046837D03*
X020651Y054317D03*
X039356Y054284D03*
X040494Y059042D03*
X039356Y046804D03*
X039317Y033457D03*
X039317Y025977D03*
X039356Y012630D03*
X039356Y005150D03*
X040494Y002349D03*
X001084Y059042D03*
D13*
X018880Y048406D03*
X018845Y027546D03*
X018884Y006719D03*
X037585Y006719D03*
X037546Y027546D03*
X037585Y048373D03*
D14*
X034166Y039092D03*
X033792Y038265D03*
X033418Y039092D03*
X033792Y058895D03*
X033418Y059721D03*
X034166Y059721D03*
X015461Y059755D03*
X015087Y058928D03*
X014713Y059755D03*
X014717Y039092D03*
X015091Y038265D03*
X015465Y039092D03*
X015465Y018068D03*
X015091Y017241D03*
X014717Y018068D03*
X033418Y018068D03*
X033792Y017241D03*
X034166Y018068D03*
D15*
X022319Y016570D03*
X021319Y016570D03*
X021319Y014416D03*
X022319Y014416D03*
X022319Y035440D03*
X021319Y035440D03*
X021319Y037593D03*
X022319Y037593D03*
X022319Y056070D03*
X021319Y056070D03*
X021319Y058223D03*
X022319Y058223D03*
X003615Y058257D03*
X002615Y058257D03*
X002615Y056103D03*
X003615Y056103D03*
X003618Y037593D03*
X002618Y037593D03*
X002618Y035440D03*
X003618Y035440D03*
X003618Y016570D03*
X002618Y016570D03*
X002618Y014416D03*
X003618Y014416D03*
D16*
X016398Y012339D03*
X019390Y011339D03*
X019390Y017339D03*
X016398Y017339D03*
X019390Y032363D03*
X016398Y033363D03*
X016398Y038363D03*
X019390Y038363D03*
X019386Y053026D03*
X016394Y054026D03*
X016394Y059026D03*
X019386Y059026D03*
X035098Y058993D03*
X038091Y058993D03*
X035098Y053993D03*
X038091Y052993D03*
X038091Y038363D03*
X035098Y038363D03*
X035098Y033363D03*
X038091Y032363D03*
X038091Y017339D03*
X035098Y017339D03*
X035098Y012339D03*
X038091Y011339D03*
D17*
X036626Y018469D03*
X035720Y018469D03*
X035720Y039493D03*
X036626Y039493D03*
X036626Y060123D03*
X035720Y060123D03*
X017921Y060156D03*
X017016Y060156D03*
X017020Y039493D03*
X017925Y039493D03*
X017925Y018469D03*
X017020Y018469D03*
D18*
X021283Y024892D03*
X022031Y024892D03*
X022031Y025916D03*
X021657Y025916D03*
X021283Y025916D03*
X023273Y035462D03*
X023647Y035462D03*
X024021Y035462D03*
X024021Y036486D03*
X023273Y036486D03*
X022031Y045522D03*
X021283Y045522D03*
X021283Y046546D03*
X021657Y046546D03*
X022031Y046546D03*
X023273Y056092D03*
X023647Y056092D03*
X024021Y056092D03*
X024021Y057116D03*
X023273Y057116D03*
X005316Y057150D03*
X004568Y057150D03*
X004568Y056126D03*
X004942Y056126D03*
X005316Y056126D03*
X003326Y046580D03*
X002952Y046580D03*
X002578Y046580D03*
X002578Y045556D03*
X003326Y045556D03*
X004572Y036486D03*
X005320Y036486D03*
X005320Y035462D03*
X004946Y035462D03*
X004572Y035462D03*
X003330Y025916D03*
X002956Y025916D03*
X002582Y025916D03*
X002582Y024892D03*
X003330Y024892D03*
X004572Y015462D03*
X005320Y015462D03*
X005320Y014439D03*
X004946Y014439D03*
X004572Y014439D03*
X003330Y004893D03*
X002956Y004893D03*
X002582Y004893D03*
X002582Y003869D03*
X003330Y003869D03*
X021283Y003869D03*
X022031Y003869D03*
X022031Y004893D03*
X021657Y004893D03*
X021283Y004893D03*
X023273Y014439D03*
X023647Y014439D03*
X024021Y014439D03*
X024021Y015462D03*
X023273Y015462D03*
D19*
X025418Y010536D03*
X026683Y012044D03*
X028998Y017290D03*
X031163Y017290D03*
X025418Y031560D03*
X026683Y033068D03*
X028998Y038313D03*
X031163Y038313D03*
X025418Y052190D03*
X026683Y053698D03*
X028998Y058943D03*
X031163Y058943D03*
X012458Y058977D03*
X010293Y058977D03*
X007978Y053731D03*
X006713Y052223D03*
X010297Y038313D03*
X012462Y038313D03*
X007982Y033068D03*
X006717Y031560D03*
X010297Y017290D03*
X012462Y017290D03*
X007982Y012044D03*
X006717Y010536D03*
D20*
X007550Y014999D03*
X007691Y017036D03*
X006042Y017128D03*
X005283Y016223D03*
X014900Y011663D03*
X014900Y010482D03*
X023984Y016223D03*
X024743Y017128D03*
X026392Y017036D03*
X026250Y014999D03*
X033600Y011663D03*
X033600Y010482D03*
X033600Y031506D03*
X033600Y032687D03*
X026250Y036023D03*
X026392Y038060D03*
X024743Y038152D03*
X023984Y037247D03*
X014900Y032687D03*
X014900Y031506D03*
X007550Y036023D03*
X007691Y038060D03*
X006042Y038152D03*
X005283Y037247D03*
X014896Y052169D03*
X014896Y053350D03*
X007546Y056686D03*
X007687Y058723D03*
X006038Y058815D03*
X005279Y057910D03*
X023984Y057877D03*
X024743Y058782D03*
X026392Y058690D03*
X026250Y056653D03*
X033600Y053317D03*
X033600Y052136D03*
D21*
X033594Y054722D03*
X033594Y056218D03*
X023099Y050067D03*
X023099Y048571D03*
X021596Y053296D03*
X021596Y054793D03*
X014889Y054755D03*
X014889Y056251D03*
X004394Y050101D03*
X004394Y048605D03*
X002891Y053330D03*
X002891Y054826D03*
X014893Y035588D03*
X014893Y034092D03*
X021596Y034163D03*
X021596Y032667D03*
X023099Y029437D03*
X023099Y027941D03*
X014893Y014564D03*
X014893Y013068D03*
X021596Y013139D03*
X021596Y011643D03*
X023099Y008414D03*
X023099Y006918D03*
X033594Y013068D03*
X033594Y014564D03*
X033594Y034092D03*
X033594Y035588D03*
X004398Y029437D03*
X004398Y027941D03*
X002895Y032667D03*
X002895Y034163D03*
X002895Y013139D03*
X002895Y011643D03*
X004398Y008414D03*
X004398Y006918D03*
D22*
X003241Y005503D03*
X002572Y005503D03*
X004677Y013797D03*
X005346Y013797D03*
X003241Y026527D03*
X002572Y026527D03*
X004677Y034821D03*
X005346Y034821D03*
X003237Y047190D03*
X002568Y047190D03*
X004673Y055484D03*
X005342Y055484D03*
X021272Y047157D03*
X021942Y047157D03*
X023378Y055450D03*
X024047Y055450D03*
X024047Y034821D03*
X023378Y034821D03*
X021942Y026527D03*
X021272Y026527D03*
X023378Y013797D03*
X024047Y013797D03*
X021942Y005503D03*
X021272Y005503D03*
D23*
X022438Y010703D03*
X022433Y011111D03*
X022866Y011111D03*
X022871Y010703D03*
X023561Y012634D03*
X023568Y013016D03*
X023568Y013371D03*
X023158Y013338D03*
X023158Y012905D03*
X024001Y013016D03*
X024001Y013371D03*
X023994Y012634D03*
X022871Y031727D03*
X022866Y032134D03*
X022433Y032134D03*
X022438Y031727D03*
X023561Y033658D03*
X023568Y034040D03*
X023568Y034394D03*
X023158Y034362D03*
X023158Y033929D03*
X024001Y034040D03*
X024001Y034394D03*
X023994Y033658D03*
X022871Y052357D03*
X022866Y052764D03*
X022433Y052764D03*
X022438Y052357D03*
X023561Y054287D03*
X023568Y054670D03*
X023568Y055024D03*
X023158Y054992D03*
X023158Y054558D03*
X024001Y054670D03*
X024001Y055024D03*
X023994Y054287D03*
X005296Y054703D03*
X005296Y055058D03*
X004863Y055058D03*
X004863Y054703D03*
X004856Y054321D03*
X005289Y054321D03*
X004453Y054592D03*
X004453Y055025D03*
X004162Y052798D03*
X004167Y052390D03*
X003733Y052390D03*
X003728Y052798D03*
X004867Y034394D03*
X004867Y034040D03*
X004860Y033658D03*
X005293Y033658D03*
X005300Y034040D03*
X005300Y034394D03*
X004457Y034362D03*
X004457Y033929D03*
X004165Y032134D03*
X004170Y031727D03*
X003737Y031727D03*
X003732Y032134D03*
X004867Y013371D03*
X004867Y013016D03*
X004860Y012634D03*
X005293Y012634D03*
X005300Y013016D03*
X005300Y013371D03*
X004457Y013338D03*
X004457Y012905D03*
X004165Y011111D03*
X004170Y010703D03*
X003737Y010703D03*
X003732Y011111D03*
D24*
X004841Y010784D03*
X004841Y012073D03*
X004841Y031808D03*
X004841Y033097D03*
X004837Y052471D03*
X004837Y053760D03*
X023542Y053727D03*
X023542Y052438D03*
X023542Y033097D03*
X023542Y031808D03*
X023542Y012073D03*
X023542Y010784D03*
D25*
X022724Y009748D03*
X021582Y009748D03*
X021582Y030772D03*
X022724Y030772D03*
X022724Y051402D03*
X021582Y051402D03*
X004019Y051435D03*
X002878Y051435D03*
X002882Y030772D03*
X004023Y030772D03*
X004023Y009748D03*
X002882Y009748D03*
D26*
X003829Y005480D03*
X003829Y004811D03*
X003823Y004371D03*
X003823Y003702D03*
X003823Y024725D03*
X003823Y025394D03*
X003829Y025835D03*
X003829Y026504D03*
X003819Y045389D03*
X003819Y046058D03*
X003825Y046498D03*
X003825Y047167D03*
X022530Y047134D03*
X022530Y046465D03*
X022524Y046024D03*
X022524Y045355D03*
X022530Y026504D03*
X022530Y025835D03*
X022524Y025394D03*
X022524Y024725D03*
X022530Y005480D03*
X022530Y004811D03*
X022524Y004371D03*
X022524Y003702D03*
D27*
G36*
X025766Y014020D02*
X025434Y013626D01*
X025040Y013958D01*
X025372Y014352D01*
X025766Y014020D01*
G37*
G36*
X027301Y017641D02*
X027785Y017817D01*
X027961Y017333D01*
X027477Y017157D01*
X027301Y017641D01*
G37*
G36*
X025766Y035043D02*
X025434Y034649D01*
X025040Y034981D01*
X025372Y035375D01*
X025766Y035043D01*
G37*
G36*
X027301Y038665D02*
X027785Y038841D01*
X027961Y038357D01*
X027477Y038181D01*
X027301Y038665D01*
G37*
G36*
X025766Y055673D02*
X025434Y055279D01*
X025040Y055611D01*
X025372Y056005D01*
X025766Y055673D01*
G37*
G36*
X027301Y059295D02*
X027785Y059471D01*
X027961Y058987D01*
X027477Y058811D01*
X027301Y059295D01*
G37*
G36*
X008596Y059328D02*
X009080Y059504D01*
X009256Y059020D01*
X008772Y058844D01*
X008596Y059328D01*
G37*
G36*
X007061Y055707D02*
X006729Y055313D01*
X006335Y055645D01*
X006667Y056039D01*
X007061Y055707D01*
G37*
G36*
X008600Y038665D02*
X009084Y038841D01*
X009260Y038357D01*
X008776Y038181D01*
X008600Y038665D01*
G37*
G36*
X007065Y035043D02*
X006733Y034649D01*
X006339Y034981D01*
X006671Y035375D01*
X007065Y035043D01*
G37*
G36*
X008600Y017641D02*
X009084Y017817D01*
X009260Y017333D01*
X008776Y017157D01*
X008600Y017641D01*
G37*
G36*
X007065Y014020D02*
X006733Y013626D01*
X006339Y013958D01*
X006671Y014352D01*
X007065Y014020D01*
G37*
D28*
X018583Y021853D03*
X018583Y024413D03*
X020355Y024413D03*
X018580Y042517D03*
X018580Y045076D03*
X020351Y045076D03*
X037284Y045042D03*
X039056Y045042D03*
X037284Y042483D03*
X037284Y024413D03*
X039056Y024413D03*
X037284Y021853D03*
X037284Y003389D03*
X039056Y003389D03*
X037284Y000830D03*
X020355Y003389D03*
X018583Y003389D03*
X018583Y000830D03*
D29*
X001084Y005302D03*
X001084Y056089D03*
X040494Y056089D03*
X040494Y005302D03*
D30*
X023726Y009087D03*
X023495Y010154D03*
X022320Y012419D03*
X022320Y013573D03*
X022939Y017945D03*
X022350Y018069D03*
X023726Y030111D03*
X023495Y031178D03*
X022320Y033443D03*
X022320Y034596D03*
X022939Y038969D03*
X022350Y039093D03*
X023726Y050741D03*
X023495Y051808D03*
X022320Y054073D03*
X022320Y055226D03*
X022939Y059599D03*
X022350Y059723D03*
X005021Y050774D03*
X004790Y051841D03*
X003615Y054106D03*
X003615Y055260D03*
X004234Y059632D03*
X003645Y059756D03*
X003649Y039093D03*
X004238Y038969D03*
X003619Y034596D03*
X003619Y033443D03*
X004794Y031178D03*
X005025Y030111D03*
X003649Y018069D03*
X004238Y017945D03*
X003619Y013573D03*
X003619Y012419D03*
X004794Y010154D03*
X005025Y009087D03*
D31*
X004362Y002056D03*
X004362Y023080D03*
X004358Y043743D03*
X023063Y043710D03*
X023063Y023080D03*
X023063Y002056D03*
D32*
X022670Y001169D03*
X025170Y002169D03*
X022670Y022193D03*
X025170Y023193D03*
X022670Y042823D03*
X025170Y043823D03*
X006465Y043856D03*
X003965Y042856D03*
X006469Y023193D03*
X003969Y022193D03*
X006469Y002169D03*
X003969Y001169D03*
D33*
X008744Y013764D03*
X008744Y034788D03*
X008740Y055451D03*
X027445Y055418D03*
X027445Y034788D03*
X027445Y013764D03*
M02*
