G75*
%MOIN*%
%OFA0B0*%
%FSLAX24Y24*%
%IPPOS*%
%LPD*%
%AMOC8*
5,1,8,0,0,1.08239X$1,22.5*
%
%ADD10R,0.0315X0.0354*%
%ADD11R,0.0248X0.0327*%
%ADD12R,0.0217X0.0472*%
%ADD13R,0.0787X0.0709*%
%ADD14R,0.0276X0.0315*%
%ADD15R,0.0197X0.0197*%
%ADD16R,0.0480X0.0358*%
%ADD17R,0.0551X0.1181*%
%ADD18R,0.0315X0.0276*%
D10*
X014717Y018068D03*
X015091Y017241D03*
X015465Y018068D03*
X015091Y038265D03*
X014717Y039092D03*
X015465Y039092D03*
X015087Y058928D03*
X014713Y059755D03*
X015461Y059755D03*
X033418Y059721D03*
X034166Y059721D03*
X033792Y058895D03*
X033418Y039092D03*
X033792Y038265D03*
X034166Y039092D03*
X034166Y018068D03*
X033792Y017241D03*
X033418Y018068D03*
D11*
X035720Y018469D03*
X036626Y018469D03*
X036626Y039493D03*
X035720Y039493D03*
X035720Y060123D03*
X036626Y060123D03*
X017921Y060156D03*
X017016Y060156D03*
X017020Y039493D03*
X017925Y039493D03*
X017925Y018469D03*
X017020Y018469D03*
D12*
X002582Y003869D03*
X002582Y004893D03*
X002956Y004893D03*
X003330Y004893D03*
X003330Y003869D03*
X004572Y014439D03*
X004946Y014439D03*
X005320Y014439D03*
X005320Y015462D03*
X004572Y015462D03*
X003330Y024892D03*
X002582Y024892D03*
X002582Y025916D03*
X002956Y025916D03*
X003330Y025916D03*
X004572Y035462D03*
X004946Y035462D03*
X005320Y035462D03*
X005320Y036486D03*
X004572Y036486D03*
X003326Y045556D03*
X002578Y045556D03*
X002578Y046580D03*
X002952Y046580D03*
X003326Y046580D03*
X004568Y056126D03*
X004942Y056126D03*
X005316Y056126D03*
X005316Y057150D03*
X004568Y057150D03*
X021283Y046546D03*
X021657Y046546D03*
X022031Y046546D03*
X022031Y045522D03*
X021283Y045522D03*
X023273Y036486D03*
X024021Y036486D03*
X024021Y035462D03*
X023647Y035462D03*
X023273Y035462D03*
X022031Y025916D03*
X021657Y025916D03*
X021283Y025916D03*
X021283Y024892D03*
X022031Y024892D03*
X023273Y015462D03*
X024021Y015462D03*
X024021Y014439D03*
X023647Y014439D03*
X023273Y014439D03*
X022031Y004893D03*
X021657Y004893D03*
X021283Y004893D03*
X021283Y003869D03*
X022031Y003869D03*
X023273Y056092D03*
X023647Y056092D03*
X024021Y056092D03*
X024021Y057116D03*
X023273Y057116D03*
D13*
X021596Y054793D03*
X021596Y053296D03*
X023099Y050067D03*
X023099Y048571D03*
X014889Y054755D03*
X014889Y056251D03*
X004394Y050101D03*
X004394Y048605D03*
X002891Y053330D03*
X002891Y054826D03*
X014893Y035588D03*
X014893Y034092D03*
X021596Y034163D03*
X021596Y032667D03*
X023099Y029437D03*
X023099Y027941D03*
X014893Y014564D03*
X014893Y013068D03*
X021596Y013139D03*
X021596Y011643D03*
X023099Y008414D03*
X023099Y006918D03*
X033594Y013068D03*
X033594Y014564D03*
X033594Y034092D03*
X033594Y035588D03*
X033594Y054722D03*
X033594Y056218D03*
X004398Y029437D03*
X004398Y027941D03*
X002895Y032667D03*
X002895Y034163D03*
X002895Y013139D03*
X002895Y011643D03*
X004398Y008414D03*
X004398Y006918D03*
D14*
X003241Y005503D03*
X002572Y005503D03*
X004677Y013797D03*
X005346Y013797D03*
X003241Y026527D03*
X002572Y026527D03*
X004677Y034821D03*
X005346Y034821D03*
X003237Y047190D03*
X002568Y047190D03*
X004673Y055484D03*
X005342Y055484D03*
X021272Y047157D03*
X021942Y047157D03*
X023378Y055450D03*
X024047Y055450D03*
X024047Y034821D03*
X023378Y034821D03*
X021942Y026527D03*
X021272Y026527D03*
X023378Y013797D03*
X024047Y013797D03*
X021942Y005503D03*
X021272Y005503D03*
D15*
X022438Y010703D03*
X022433Y011111D03*
X022866Y011111D03*
X022871Y010703D03*
X023561Y012634D03*
X023568Y013016D03*
X023568Y013371D03*
X023158Y013338D03*
X023158Y012905D03*
X024001Y013016D03*
X024001Y013371D03*
X023994Y012634D03*
X022871Y031727D03*
X022866Y032134D03*
X022433Y032134D03*
X022438Y031727D03*
X023561Y033658D03*
X023568Y034040D03*
X023568Y034394D03*
X023158Y034362D03*
X023158Y033929D03*
X024001Y034040D03*
X024001Y034394D03*
X023994Y033658D03*
X022871Y052357D03*
X022866Y052764D03*
X022433Y052764D03*
X022438Y052357D03*
X023561Y054287D03*
X023568Y054670D03*
X023568Y055024D03*
X023158Y054992D03*
X023158Y054558D03*
X024001Y054670D03*
X024001Y055024D03*
X023994Y054287D03*
X005296Y054703D03*
X005296Y055058D03*
X004863Y055058D03*
X004863Y054703D03*
X004856Y054321D03*
X005289Y054321D03*
X004453Y054592D03*
X004453Y055025D03*
X004162Y052798D03*
X004167Y052390D03*
X003733Y052390D03*
X003728Y052798D03*
X004867Y034394D03*
X004867Y034040D03*
X004860Y033658D03*
X005293Y033658D03*
X005300Y034040D03*
X005300Y034394D03*
X004457Y034362D03*
X004457Y033929D03*
X004165Y032134D03*
X004170Y031727D03*
X003737Y031727D03*
X003732Y032134D03*
X004867Y013371D03*
X004867Y013016D03*
X004860Y012634D03*
X005293Y012634D03*
X005300Y013016D03*
X005300Y013371D03*
X004457Y013338D03*
X004457Y012905D03*
X004165Y011111D03*
X004170Y010703D03*
X003737Y010703D03*
X003732Y011111D03*
D16*
X004841Y010784D03*
X004841Y012073D03*
X004841Y031808D03*
X004841Y033097D03*
X004837Y052471D03*
X004837Y053760D03*
X023542Y053727D03*
X023542Y052438D03*
X023542Y033097D03*
X023542Y031808D03*
X023542Y012073D03*
X023542Y010784D03*
D17*
X022724Y009748D03*
X021582Y009748D03*
X021582Y030772D03*
X022724Y030772D03*
X022724Y051402D03*
X021582Y051402D03*
X004019Y051435D03*
X002878Y051435D03*
X002882Y030772D03*
X004023Y030772D03*
X004023Y009748D03*
X002882Y009748D03*
D18*
X003829Y005480D03*
X003829Y004811D03*
X003823Y004371D03*
X003823Y003702D03*
X003823Y024725D03*
X003823Y025394D03*
X003829Y025835D03*
X003829Y026504D03*
X003819Y045389D03*
X003819Y046058D03*
X003825Y046498D03*
X003825Y047167D03*
X022530Y047134D03*
X022530Y046465D03*
X022524Y046024D03*
X022524Y045355D03*
X022530Y026504D03*
X022530Y025835D03*
X022524Y025394D03*
X022524Y024725D03*
X022530Y005480D03*
X022530Y004811D03*
X022524Y004371D03*
X022524Y003702D03*
M02*
