G75*
%MOIN*%
%OFA0B0*%
%FSLAX24Y24*%
%IPPOS*%
%LPD*%
%AMOC8*
5,1,8,0,0,1.08239X$1,22.5*
%
%ADD10R,0.0276X0.0315*%
%ADD11R,0.0250X0.0500*%
%ADD12R,0.0500X0.0250*%
%ADD13R,0.0669X0.0394*%
D10*
X002784Y015341D03*
X003453Y015341D03*
X003272Y017597D03*
X003941Y017597D03*
X003453Y036365D03*
X002784Y036365D03*
X003272Y038621D03*
X003941Y038621D03*
X003449Y057028D03*
X002780Y057028D03*
X003268Y059284D03*
X003937Y059284D03*
X021485Y056995D03*
X022154Y056995D03*
X021972Y059251D03*
X022642Y059251D03*
X022642Y038621D03*
X021972Y038621D03*
X022154Y036365D03*
X021485Y036365D03*
X021972Y017597D03*
X022642Y017597D03*
X022154Y015341D03*
X021485Y015341D03*
D11*
X005419Y005150D03*
X018017Y005150D03*
X024120Y005150D03*
X036718Y005150D03*
X036718Y026174D03*
X024120Y026174D03*
X018017Y026174D03*
X005419Y026174D03*
X005415Y046837D03*
X018013Y046837D03*
X024120Y046804D03*
X036718Y046804D03*
D12*
G36*
X035610Y050983D02*
X036037Y050727D01*
X035908Y050513D01*
X035481Y050769D01*
X035610Y050983D01*
G37*
G36*
X035610Y030354D02*
X036037Y030098D01*
X035908Y029884D01*
X035481Y030140D01*
X035610Y030354D01*
G37*
G36*
X035610Y009330D02*
X036037Y009074D01*
X035908Y008860D01*
X035481Y009116D01*
X035610Y009330D01*
G37*
G36*
X016910Y009330D02*
X017337Y009074D01*
X017208Y008860D01*
X016781Y009116D01*
X016910Y009330D01*
G37*
G36*
X016910Y030354D02*
X017337Y030098D01*
X017208Y029884D01*
X016781Y030140D01*
X016910Y030354D01*
G37*
G36*
X016906Y051017D02*
X017333Y050761D01*
X017204Y050547D01*
X016777Y050803D01*
X016906Y051017D01*
G37*
D13*
X013509Y043939D03*
X013509Y043002D03*
X012509Y043002D03*
X012509Y043939D03*
X011509Y043939D03*
X011509Y043002D03*
X010509Y043002D03*
X010509Y043939D03*
X009509Y043939D03*
X009509Y043002D03*
X009513Y023276D03*
X009513Y022339D03*
X010513Y022339D03*
X010513Y023276D03*
X011513Y023276D03*
X011513Y022339D03*
X012513Y022339D03*
X012513Y023276D03*
X013513Y023276D03*
X013513Y022339D03*
X013513Y002252D03*
X013513Y001315D03*
X012513Y001315D03*
X012513Y002252D03*
X011513Y002252D03*
X011513Y001315D03*
X010513Y001315D03*
X010513Y002252D03*
X009513Y002252D03*
X009513Y001315D03*
X028214Y001315D03*
X028214Y002252D03*
X029214Y002252D03*
X029214Y001315D03*
X030214Y001315D03*
X030214Y002252D03*
X031214Y002252D03*
X031214Y001315D03*
X032214Y001315D03*
X032214Y002252D03*
X032214Y022339D03*
X032214Y023276D03*
X031214Y023276D03*
X031214Y022339D03*
X030214Y022339D03*
X030214Y023276D03*
X029214Y023276D03*
X029214Y022339D03*
X028214Y022339D03*
X028214Y023276D03*
X028214Y042969D03*
X028214Y043906D03*
X029214Y043906D03*
X029214Y042969D03*
X030214Y042969D03*
X030214Y043906D03*
X031214Y043906D03*
X031214Y042969D03*
X032214Y042969D03*
X032214Y043906D03*
M02*
